<?xml version="1.0" encoding="UTF-8"?>
<svg version="1.1" xmlns="http://www.w3.org/2000/svg" width="64" height="64">
<path d="M0 0 C0 1.32 0 2.64 0 4 C-3.28696233 4.79953138 -4.71023192 5.09658936 -8 4 C-8 4.66 -8 5.32 -8 6 C-5.69 6 -3.38 6 -1 6 C-0.67 6.66 -0.34 7.32 0 8 C0.66 7.34 1.32 6.68 2 6 C4.68839385 5.73008094 7.29141936 5.91262643 10 6 C10 5.34 10 4.68 10 4 C19.41002278 2.66742597 19.41002278 2.66742597 24 4 C24 4.99 24 5.98 24 7 C25.14942177 8.47196359 26.31967613 9.92769811 27.5 11.375 C32.74818954 19.2313807 32.56120406 29.85709304 31 39 C29 41 29 41 26.0625 41.375 C22.88993894 41.66369125 22.88993894 41.66369125 21.5 44.0625 C21.005 44.701875 20.51 45.34125 20 46 C16.9375 46.375 16.9375 46.375 14 46 C13.34 45.34 12.68 44.68 12 44 C12 43.01 12 42.02 12 41 C7.05 41 2.1 41 -3 41 C-3.33 42.32 -3.66 43.64 -4 45 C-7.3125 45.6875 -7.3125 45.6875 -11 46 C-12.9375 44.6875 -12.9375 44.6875 -14 43 C-14 42.34 -14 41.68 -14 41 C-15.19625 41.20625 -16.3925 41.4125 -17.625 41.625 C-21.56396476 42.12873972 -24.31908996 41.61600928 -28 40 C-30.70517317 37.29482683 -29.27442478 29.47951206 -29.29516602 25.58227539 C-29.31229974 23.33872249 -29.35615516 21.09667404 -29.40039062 18.85351562 C-29.41052454 17.41928166 -29.41903845 15.98503516 -29.42578125 14.55078125 C-29.44036377 13.24794189 -29.45494629 11.94510254 -29.4699707 10.6027832 C-28.91527741 6.35051886 -27.80640432 4.22109011 -25 1 C-22.78930664 0.11938477 -22.78930664 0.11938477 -20.41015625 -0.05859375 C-19.54326172 -0.13400391 -18.67636719 -0.20941406 -17.78320312 -0.28710938 C-16.88537109 -0.33673828 -15.98753906 -0.38636719 -15.0625 -0.4375 C-14.16853516 -0.51419922 -13.27457031 -0.59089844 -12.35351562 -0.66992188 C-8.06453965 -0.99788366 -4.18741427 -1.19765293 0 0 Z M-23 4 C-23.33 4.66 -23.66 5.32 -24 6 C-20.04 6 -16.08 6 -12 6 C-12 5.34 -12 4.68 -12 4 C-15.63 4 -19.26 4 -23 4 Z " fill="#69555E" transform="translate(31,10)"/>
<path d="M0 0 C0 1.32 0 2.64 0 4 C-3.28696233 4.79953138 -4.71023192 5.09658936 -8 4 C-8 4.66 -8 5.32 -8 6 C-5.69 6 -3.38 6 -1 6 C-1 14.25 -1 22.5 -1 31 C-10.24 31 -19.48 31 -29 31 C-29.0825 27.16375 -29.165 23.3275 -29.25 19.375 C-29.28641602 18.17665527 -29.32283203 16.97831055 -29.36035156 15.74365234 C-29.4080442 11.16285151 -29.23904384 7.63142393 -27.60546875 3.31640625 C-23.73107515 -0.12814458 -20.10851595 -0.1585745 -15.0625 -0.4375 C-14.16853516 -0.51419922 -13.27457031 -0.59089844 -12.35351562 -0.66992188 C-8.06453965 -0.99788366 -4.18741427 -1.19765293 0 0 Z M-23 4 C-23.33 4.66 -23.66 5.32 -24 6 C-20.04 6 -16.08 6 -12 6 C-12 5.34 -12 4.68 -12 4 C-15.63 4 -19.26 4 -23 4 Z " fill="#792637" transform="translate(31,10)"/>
<path d="M0 0 C0 0.99 0 1.98 0 3 C1.12816804 4.65196035 2.30202269 6.27294305 3.5 7.875 C7.84694959 14.40854396 7.57947386 19.30127589 7 27 C1.39 27 -4.22 27 -10 27 C-10 20.07 -10 13.14 -10 6 C-14.455 6.495 -14.455 6.495 -19 7 C-19.33 13.27 -19.66 19.54 -20 26 C-21.32 26 -22.64 26 -24 26 C-24.05787784 22.37506666 -24.0935542 18.75025143 -24.125 15.125 C-24.14175781 14.09246094 -24.15851562 13.05992188 -24.17578125 11.99609375 C-24.18222656 11.00996094 -24.18867188 10.02382813 -24.1953125 9.0078125 C-24.20578613 8.09660645 -24.21625977 7.18540039 -24.22705078 6.24658203 C-24 4 -24 4 -22 2 C-19.31160615 1.73008094 -16.70858064 1.91262643 -14 2 C-14 1.34 -14 0.68 -14 0 C-9.20699867 -1.39151652 -4.84864218 -0.68662689 0 0 Z " fill="#CD032A" transform="translate(55,14)"/>
<path d="M0 0 C0 0.33 0 0.66 0 1 C-2.64 1 -5.28 1 -8 1 C-8 3.31 -8 5.62 -8 8 C-8.928125 8.12375 -8.928125 8.12375 -9.875 8.25 C-10.57625 8.4975 -11.2775 8.745 -12 9 C-12.268125 9.66 -12.53625 10.32 -12.8125 11 C-14 13 -14 13 -17.4375 13.9375 C-21 14 -21 14 -22.9375 12.6875 C-24 11 -24 11 -24 9 C-25.19625 9.20625 -26.3925 9.4125 -27.625 9.625 C-31.56396476 10.12873972 -34.31908996 9.61600928 -38 8 C-39 7 -39 7 -39.09765625 5.15234375 C-39.06510417 3.1015625 -39.03255208 1.05078125 -39 -1 C-34.56331152 -1.22877452 -30.12575747 -1.42922724 -25.6875 -1.625 C-23.82254883 -1.72167969 -23.82254883 -1.72167969 -21.91992188 -1.8203125 C-14.3140178 -2.13972055 -7.41472729 -1.76819359 0 0 Z " fill="#8F9194" transform="translate(41,42)"/>
<path d="M0 0 C9.24 0 18.48 0 28 0 C28 2.64 28 5.28 28 8 C18.76 8 9.52 8 0 8 C0 5.36 0 2.72 0 0 Z " fill="#CA022A" transform="translate(2,33)"/>
<path d="M0 0 C5.28 0 10.56 0 16 0 C16 4.62 16 9.24 16 14 C10.72 14 5.44 14 0 14 C0 9.38 0 4.76 0 0 Z " fill="#CE0028" transform="translate(14,16)"/>
<path d="M0 0 C2.97 0 5.94 0 9 0 C9 6.93 9 13.86 9 21 C6.03 21 3.06 21 0 21 C0 14.07 0 7.14 0 0 Z " fill="#939598" transform="translate(36,20)"/>
<path d="M0 0 C5.61 0 11.22 0 17 0 C17 6.51612903 17 6.51612903 14 10 C9.06003056 11.39810456 5.68749621 11.00892695 1 9 C0.67 8.67 0.34 8.34 0 8 C0 5.36 0 2.72 0 0 Z " fill="#4B4B4D" transform="translate(2,41)"/>
<path d="M0 0 C4.95 0 9.9 0 15 0 C15.1953125 6.0546875 15.1953125 6.0546875 15 8 C13 10 13 10 10.0625 10.375 C6.88993894 10.66369125 6.88993894 10.66369125 5.5 13.0625 C5.005 13.701875 4.51 14.34125 4 15 C0.8125 15.25 0.8125 15.25 -2 15 C-2 14.34 -2 13.68 -2 13 C-0.68 13 0.64 13 2 13 C2.25030977 10.58380177 2.25030977 10.58380177 2 8 C1.01 7.34 0.02 6.68 -1 6 C3.875 5 3.875 5 5 5 C2.525 4.01 2.525 4.01 0 3 C0 2.01 0 1.02 0 0 Z " fill="#554D3F" transform="translate(47,41)"/>
<path d="M0 0 C3.96 0 7.92 0 12 0 C12 2.64 12 5.28 12 8 C8.04 8 4.08 8 0 8 C0 5.36 0 2.72 0 0 Z " fill="#941B33" transform="translate(2,33)"/>
<path d="M0 0 C3.29714793 0.32971479 4.6226839 0.6226839 7 3 C6.625 6.625 6.625 6.625 6 10 C2.6875 10.6875 2.6875 10.6875 -1 11 C-2.9375 9.5625 -2.9375 9.5625 -4 8 C-2.25 2.25 -2.25 2.25 0 0 Z " fill="#78797B" transform="translate(21,45)"/>
<path d="M0 0 C3.07423183 -0.35471906 5.94008528 -0.52666346 9 0 C13 4.48780488 13 4.48780488 13 8 C8.71 8 4.42 8 0 8 C0 5.36 0 2.72 0 0 Z " fill="#478BF5" transform="translate(48,20)"/>
<path d="M0 0 C0 1.32 0 2.64 0 4 C-3.28696233 4.79953138 -4.71023192 5.09658936 -8 4 C-8 4.99 -8 5.98 -8 7 C-9.32 7 -10.64 7 -12 7 C-12 6.01 -12 5.02 -12 4 C-13.65 4 -15.3 4 -17 4 C-17 2.68 -17 1.36 -17 0 C-15.10507254 -0.19644384 -13.20899097 -0.38177288 -11.3125 -0.5625 C-9.72888672 -0.71912109 -9.72888672 -0.71912109 -8.11328125 -0.87890625 C-5.18573914 -0.99277552 -2.82868856 -0.70848415 0 0 Z " fill="#E8BC35" transform="translate(31,10)"/>
<path d="M0 0 C9.24 0 18.48 0 28 0 C28 0.99 28 1.98 28 3 C18.76 3 9.52 3 0 3 C0 2.01 0 1.02 0 0 Z " fill="#D3BCC1" transform="translate(2,30)"/>
<path d="M0 0 C2.97 0 5.94 0 9 0 C9 2.64 9 5.28 9 8 C6.03 8 3.06 8 0 8 C0 5.36 0 2.72 0 0 Z " fill="#4E84E6" transform="translate(36,20)"/>
<path d="M0 0 C1.8125 1.5 1.8125 1.5 3 3 C2.67 3.99 2.34 4.98 2 6 C1.34 5.01 0.68 4.02 0 3 C-1.32 3 -2.64 3 -4 3 C-3.01 3.66 -2.02 4.32 -1 5 C-1.33 6.65 -1.66 8.3 -2 10 C-3.65 10.33 -5.3 10.66 -7 11 C-8.53656962 8.5595659 -9.02089707 7.29255898 -8.8125 4.375 C-7.29881155 -0.04962777 -4.22561644 -0.52820205 0 0 Z " fill="#909192" transform="translate(51,44)"/>
<path d="M0 0 C1.98 0.495 1.98 0.495 4 1 C4 5.29 4 9.58 4 14 C2.35 14 0.7 14 -1 14 C-1.02685938 11.85423363 -1.04633088 9.70837355 -1.0625 7.5625 C-1.07410156 6.36753906 -1.08570312 5.17257813 -1.09765625 3.94140625 C-1 1 -1 1 0 0 Z " fill="#D00028" transform="translate(3,16)"/>
<path d="M0 0 C3.40667322 0.44824648 5.07914607 1.05276405 8 3 C9.65549531 3.38499891 11.3222433 3.72793135 13 4 C13 4.33 13 4.66 13 5 C12.071875 5.0825 11.14375 5.165 10.1875 5.25 C6.90725226 5.65597823 6.90725226 5.65597823 5.5 8.0625 C5.005 8.701875 4.51 9.34125 4 10 C0.8125 10.25 0.8125 10.25 -2 10 C-2 9.34 -2 8.68 -2 8 C-0.68 8 0.64 8 2 8 C2.25030977 5.58380177 2.25030977 5.58380177 2 3 C1.01 2.34 0.02 1.68 -1 1 C-0.67 0.67 -0.34 0.34 0 0 Z " fill="#474749" transform="translate(47,46)"/>
<path d="M0 0 C1.65 0 3.3 0 5 0 C5 3.3 5 6.6 5 10 C1 9 1 9 0 8 C-0.14115161 5.32941149 -0.04247107 2.67567762 0 0 Z " fill="#57585A" transform="translate(2,41)"/>
<path d="M0 0 C3.07423183 -0.35471906 5.94008528 -0.52666346 9 0 C13 4.48780488 13 4.48780488 13 8 C8.71 8 4.42 8 0 8 C0 7.67 0 7.34 0 7 C2.97 7 5.94 7 9 7 C7.91744593 4.44309577 7.91744593 4.44309577 6 2 C2.9042893 1.10792821 2.9042893 1.10792821 0 1 C0 0.67 0 0.34 0 0 Z " fill="#596AC6" transform="translate(48,20)"/>
<path d="M0 0 C0 0.33 0 0.66 0 1 C-7.92 1 -15.84 1 -24 1 C-18.33561022 -4.66438978 -6.98687858 -1.6352269 0 0 Z " fill="#87888B" transform="translate(41,42)"/>
<path d="M0 0 C0.66 0 1.32 0 2 0 C2 4.29 2 8.58 2 13 C-0.97 13 -3.94 13 -7 13 C-7 12.34 -7 11.68 -7 11 C-4.69 11 -2.38 11 0 11 C0 7.37 0 3.74 0 0 Z " fill="#82858F" transform="translate(43,28)"/>
<path d="M0 0 C1.65 0 3.3 0 5 0 C5 2.64 5 5.28 5 8 C3.35 8 1.7 8 0 8 C0 5.36 0 2.72 0 0 Z " fill="#CC022A" transform="translate(2,33)"/>
<path d="M0 0 C2.05078125 0.03255208 4.1015625 0.06510417 6.15234375 0.09765625 C6.15234375 1.08765625 6.15234375 2.07765625 6.15234375 3.09765625 C5.18296875 3.22140625 4.21359375 3.34515625 3.21484375 3.47265625 C2.20421875 3.67890625 1.19359375 3.88515625 0.15234375 4.09765625 C-0.17765625 4.75765625 -0.50765625 5.41765625 -0.84765625 6.09765625 C-1.83765625 6.09765625 -2.82765625 6.09765625 -3.84765625 6.09765625 C-2.77957394 0.14691194 -2.77957394 0.14691194 0 0 Z " fill="#7E8085" transform="translate(7.84765625,10.90234375)"/>
<path d="M0 0 C1.65 0 3.3 0 5 0 C5.3636198 4.24223102 4.5393228 6.58168085 2 10 C1.34 10 0.68 10 0 10 C0 6.7 0 3.4 0 0 Z " fill="#5A5C5D" transform="translate(14,41)"/>
<path d="M0 0 C0.66 0 1.32 0 2 0 C1.67 2.31 1.34 4.62 1 7 C-1.31 7.33 -3.62 7.66 -6 8 C-6.33 7.34 -6.66 6.68 -7 6 C-5.35 6 -3.7 6 -2 6 C-2 5.34 -2 4.68 -2 4 C-1.34 4 -0.68 4 0 4 C0 2.68 0 1.36 0 0 Z " fill="#4A494B" transform="translate(26,48)"/>
<path d="M0 0 C0.99 0 1.98 0 3 0 C3 2.97 3 5.94 3 9 C2.01 9 1.02 9 0 9 C0 6.03 0 3.06 0 0 Z " fill="#D8BEC5" transform="translate(59,30)"/>
<path d="M0 0 C1.65 0 3.3 0 5 0 C5 1.65 5 3.3 5 5 C3.35 5 1.7 5 0 5 C0 3.35 0 1.7 0 0 Z " fill="#C0072B" transform="translate(8,16)"/>
<path d="M0 0 C2.475 0.495 2.475 0.495 5 1 C5 2.32 5 3.64 5 5 C3.35 5.33 1.7 5.66 0 6 C0 4.02 0 2.04 0 0 Z " fill="#F69119" transform="translate(26,9)"/>
<path d="M0 0 C1.65 0 3.3 0 5 0 C5 1.65 5 3.3 5 5 C3.35 4.67 1.7 4.34 0 4 C0 2.68 0 1.36 0 0 Z " fill="#545557" transform="translate(8,47)"/>
<path d="M0 0 C1.67542976 0.28604898 3.34385343 0.61781233 5 1 C4.67 2.98 4.34 4.96 4 7 C3.34 6.67 2.68 6.34 2 6 C2 5.01 2 4.02 2 3 C1.01 2.34 0.02 1.68 -1 1 C-0.67 0.67 -0.34 0.34 0 0 Z " fill="#595A5C" transform="translate(47,46)"/>
<path d="M0 0 C1.65 0 3.3 0 5 0 C5 1.32 5 2.64 5 4 C3.35 4 1.7 4 0 4 C0 2.68 0 1.36 0 0 Z " fill="#BE082B" transform="translate(8,22)"/>
<path d="M0 0 C1.32 0 2.64 0 4 0 C4 1.32 4 2.64 4 4 C2.35 3.67 0.7 3.34 -1 3 C-0.67 2.01 -0.34 1.02 0 0 Z " fill="#FDC11B" transform="translate(46,13)"/>
<path d="M0 0 C1.98 0.99 1.98 0.99 4 2 C4 2.66 4 3.32 4 4 C2.68 3.34 1.36 2.68 0 2 C0 1.34 0 0.68 0 0 Z " fill="#D90020" transform="translate(42,9)"/>
<path d="M0 0 C0.66 0 1.32 0 2 0 C1.34 1.32 0.68 2.64 0 4 C-0.33 3.01 -0.66 2.02 -1 1 C-0.67 0.67 -0.34 0.34 0 0 Z " fill="#CF0027" transform="translate(51,9)"/>
<path d="M0 0 C0.66 0 1.32 0 2 0 C2 0.99 2 1.98 2 3 C1.34 3 0.68 3 0 3 C0 2.01 0 1.02 0 0 Z " fill="#CE0027" transform="translate(47,8)"/>
</svg>
