<svg xmlns="http://www.w3.org/2000/svg" version="1.0" width="800.000000pt" height="800.000000pt" viewBox="0 0 800.000000 800.000000" preserveAspectRatio="xMidYMid meet">

<g transform="translate(0.000000,800.000000) scale(0.100000,-0.100000)" fill="#f0e72a" stroke="none">
<path d="M3815 7989 c-1264 -55 -2439 -722 -3140 -1784 -354 -535 -561 -1104 -641 -1765 -25 -203 -25 -666 -1 -873 103 -866 445 -1620 1024 -2260 272 -301 627 -583 993 -790 448 -253 942 -414 1485 -484 111 -14 208 -18 475 -18 357 1 440 8 727 60 939 172 1790 685 2392 1440 472 591 757 1286 847 2060 22 186 25 622 6 805 -92 882 -440 1663 -1031 2316 -317 349 -735 665 -1171 884 -457 229 -1050 386 -1534 405 -72 3 -160 7 -196 9 -36 1 -141 -1 -235 -5z m570 -169 c777 -82 1483 -377 2073 -869 585 -487 1019 -1148 1231 -1874 173 -591 198 -1248 71 -1869 -255 -1245 -1156 -2310 -2355 -2781 -676 -266 -1459 -333 -2171 -187 -1158 239 -2139 995 -2668 2058 -266 532 -396 1094 -396 1701 0 239 11 383 46 608 134 868 581 1683 1244 2266 649 570 1417 892 2280 957 137 10 504 4 645 -10z" fill="#f0e72a"/>
<path d="M1870 6633 c-33 -12 -40 -36 -40 -138 0 -65 4 -107 13 -118 10 -14 37 -17 182 -19 l170 -3 3 -500 c2 -456 4 -501 19 -512 20 -16 250 -18 273 -3 13 8 16 80 20 512 l5 503 164 3 c101 1 170 7 178 13 9 8 13 43 13 125 0 105 -1 114 -22 128 -20 14 -82 16 -493 15 -258 0 -477 -3 -485 -6z" fill="#f0e72a"/>
<path d="M3323 6630 c-12 -5 -29 -22 -37 -38 -8 -15 -76 -194 -151 -398 -75 -203 -175 -473 -222 -601 -72 -193 -84 -235 -73 -248 16 -20 256 -22 283 -2 9 6 32 55 51 107 l34 95 243 0 244 0 31 -88 c47 -132 42 -128 203 -125 129 3 136 4 139 24 3 19 -117 355 -352 983 -52 140 -104 263 -116 275 -18 19 -34 21 -138 23 -64 2 -127 -2 -139 -7z m207 -594 l69 -206 -145 0 c-79 0 -144 2 -144 5 0 5 116 350 135 404 3 8 8 12 11 9 2 -3 36 -98 74 -212z" fill="#f0e72a"/>
<path d="M4146 6624 c-9 -8 -16 -19 -16 -22 0 -4 83 -141 184 -305 l185 -298 -48 -82 c-258 -441 -312 -538 -309 -559 3 -23 6 -23 142 -26 109 -2 143 1 161 12 12 8 69 98 126 200 57 102 107 186 110 186 3 0 52 -83 108 -185 57 -102 113 -193 126 -201 18 -11 52 -14 161 -12 135 3 139 4 142 25 2 15 -58 129 -172 327 -97 167 -176 309 -176 315 0 6 79 139 175 295 97 157 178 292 181 299 3 8 -2 22 -11 31 -13 13 -39 16 -144 16 -113 0 -131 -2 -154 -20 -14 -11 -71 -94 -127 -185 -56 -91 -106 -165 -110 -165 -3 0 -55 78 -115 174 -68 109 -117 178 -132 185 -13 6 -79 11 -148 11 -99 0 -127 -3 -139 -16z" fill="#f0e72a"/>
<path d="M5383 6625 c-21 -15 -23 -23 -23 -125 0 -136 3 -140 106 -140 l74 0 0 -380 0 -380 -78 0 c-47 0 -83 -5 -90 -12 -8 -8 -12 -50 -12 -125 0 -101 2 -113 19 -123 27 -14 605 -14 632 0 17 10 19 22 19 123 0 75 -4 117 -12 125 -7 7 -43 12 -90 12 l-78 0 0 380 0 380 74 0 c56 0 77 4 87 17 19 22 20 226 1 245 -10 10 -83 14 -310 16 -258 2 -300 1 -319 -13z" fill="#f0e72a"/>
<path d="M2158 4673 l-3 -338 -372 -3 -373 -2 0 -350 0 -350 373 2 372 3 3 338 2 337 370 0 370 0 2 -347 3 -348 373 -3 372 -2 0 350 0 350 -375 0 -375 0 0 350 0 350 -370 0 -370 0 -2 -337z" fill="#f0e72a"/>
<path d="M3670 4640 l0 -350 375 0 375 0 -2 348 -3 347 -372 3 -373 2 0 -350z" fill="#f0e72a"/>
<path d="M5167 4963 c-4 -3 -7 -161 -7 -350 l0 -343 -370 0 -370 0 0 -350 0 -350 370 0 370 0 0 350 0 350 370 0 370 0 2 -352 3 -353 368 -3 367 -2 -2 352 -3 353 -362 3 -363 2 -2 348 -3 347 -366 3 c-201 1 -368 -1 -372 -5z" fill="#f0e72a"/>
<path d="M3590 3132 c-23 -11 -43 -33 -57 -62 -20 -39 -23 -59 -23 -172 l0 -128 -98 0 c-156 0 -257 -35 -342 -120 -61 -61 -87 -116 -130 -280 -54 -206 -46 -191 -81 -152 -23 26 -29 42 -29 78 0 94 -48 124 -200 124 -162 0 -200 -28 -200 -144 0 -58 3 -69 29 -98 l29 -33 130 -5 c128 -5 131 -5 152 -33 12 -15 21 -30 19 -31 -2 -2 -23 -13 -46 -25 -53 -27 -106 -79 -135 -134 -23 -41 -23 -48 -23 -382 0 -331 1 -341 22 -381 31 -58 114 -129 173 -149 l50 -17 0 -165 c0 -263 0 -263 280 -263 205 0 236 6 262 53 9 14 15 82 18 197 l5 175 595 0 595 0 5 -183 5 -184 33 -29 32 -29 204 0 c193 0 205 1 231 22 47 37 55 72 55 245 l0 158 53 19 c69 24 157 112 180 181 25 71 25 628 1 698 -21 61 -96 144 -155 172 l-47 21 25 32 24 32 117 0 c166 0 202 25 202 141 0 108 -45 139 -199 139 -156 0 -200 -28 -204 -129 -2 -37 -9 -57 -27 -75 -13 -15 -27 -26 -31 -26 -3 0 -23 66 -43 148 -20 81 -50 174 -66 208 -38 77 -110 146 -198 187 -61 29 -78 32 -189 35 l-123 4 0 127 c0 112 -3 132 -22 171 -41 80 -40 80 -458 80 -327 0 -369 -2 -400 -18z m1105 -580 c37 -16 82 -58 101 -94 8 -15 34 -104 58 -198 l44 -170 -909 0 c-862 0 -910 1 -905 18 3 9 22 85 42 167 20 83 47 169 60 192 28 48 81 84 139 94 22 4 333 6 690 5 512 -1 656 -4 680 -14z m-1597 -859 c19 -9 45 -33 59 -54 75 -114 4 -266 -131 -277 -165 -13 -258 180 -142 296 60 61 134 73 214 35z m1422 9 c55 -27 71 -70 68 -179 -2 -74 -7 -97 -24 -120 -40 -54 -29 -53 -586 -50 l-518 2 -32 33 -33 32 0 115 c0 112 0 114 29 144 16 16 38 32 50 34 11 2 244 5 516 6 453 1 498 -1 530 -17z m550 -7 c57 -29 92 -88 93 -154 2 -163 -194 -243 -305 -125 -136 145 35 369 212 279z" fill="#f0e72a"/>
</g>
</svg>