<?xml version="1.0" encoding="UTF-8"?>
<svg version="1.1" xmlns="http://www.w3.org/2000/svg" width="48" height="48">
<path d="M0 0 C4.68796317 2.8950501 8.77605467 6.42344712 10.234375 11.89453125 C11.16656452 18.74158704 11.3930195 24.99387098 7.671875 31.01953125 C3.66347868 35.99068326 0.31000422 38.47580101 -6.0078125 39.3359375 C-13.1275177 39.69575056 -18.34453314 39.19135672 -23.98828125 34.640625 C-29.08369757 29.63479842 -30.03494232 26.05750776 -30.390625 19.01953125 C-30.17838344 12.13997715 -28.58962241 7.80486419 -23.765625 2.89453125 C-17.29271618 -2.6344117 -7.84970384 -3.13766411 0 0 Z " fill="#117413" transform="translate(33.765625,5.10546875)"/>
<path d="M0 0 C6.6 0 13.2 0 20 0 C19.690625 3.114375 19.38125 6.22875 19.0625 9.4375 C18.96718994 10.42032959 18.87187988 11.40315918 18.77368164 12.41577148 C18.65561157 13.56928101 18.65561157 13.56928101 18.53515625 14.74609375 C18.456604 15.53685303 18.37805176 16.3276123 18.29711914 17.14233398 C18 19 18 19 17 20 C14.64686445 20.07271741 12.29166332 20.08370868 9.9375 20.0625 C8.64714844 20.05347656 7.35679688 20.04445313 6.02734375 20.03515625 C5.02832031 20.02355469 4.02929688 20.01195313 3 20 C0.70172804 13.41162037 0.42987418 6.94963266 0 0 Z " fill="#8DBD8C" transform="translate(14,19)"/>
<path d="M0 0 C0.99 0 1.98 0 3 0 C3.66 1.32 4.32 2.64 5 4 C6.32 4 7.64 4 9 4 C9.66 2.68 10.32 1.36 11 0 C11.99 0 12.98 0 14 0 C15.1898306 2.3796612 15.13349966 3.91485735 15.125 6.5625 C15.12886719 7.77099609 15.12886719 7.77099609 15.1328125 9.00390625 C15 11 15 11 14 12 C11.66839945 12.09909302 9.33370058 12.12970504 7 12.125 C5.72125 12.12757812 4.4425 12.13015625 3.125 12.1328125 C0 12 0 12 -1 11 C-1.09823996 9.52351124 -1.12973519 8.04224583 -1.125 6.5625 C-1.12757812 5.75941406 -1.13015625 4.95632812 -1.1328125 4.12890625 C-1 2 -1 2 0 0 Z " fill="#8FBC91" transform="translate(17,27)"/>
<path d="M0 0 C6.6 0 13.2 0 20 0 C19.67 1.65 19.34 3.3 19 5 C18.67 4.01 18.34 3.02 18 2 C16.68 2 15.36 2 14 2 C13.67 3.32 13.34 4.64 13 6 C12.67 4.68 12.34 3.36 12 2 C10.68 2 9.36 2 8 2 C7.67 3.32 7.34 4.64 7 6 C6.67 4.68 6.34 3.36 6 2 C4.68 2 3.36 2 2 2 C1.67 3.32 1.34 4.64 1 6 C0.67 4.02 0.34 2.04 0 0 Z " fill="#F4F8F4" transform="translate(14,19)"/>
<path d="M0 0 C1.32 1.32 2.64 2.64 4 4 C2.35 5.32 0.7 6.64 -1 8 C-1.99 6.68 -2.98 5.36 -4 4 C-2.68 2.68 -1.36 1.36 0 0 Z " fill="#EEF5EE" transform="translate(21,7)"/>
<path d="M0 0 C0.99386719 0.00902344 1.98773438 0.01804688 3.01171875 0.02734375 C4.15060547 0.04474609 4.15060547 0.04474609 5.3125 0.0625 C4.9825 1.0525 4.6525 2.0425 4.3125 3.0625 C0.0225 3.0625 -4.2675 3.0625 -8.6875 3.0625 C-8.6875 2.4025 -8.6875 1.7425 -8.6875 1.0625 C-5.53819107 0.01273036 -3.29935544 -0.03881595 0 0 Z " fill="#FEFEFE" transform="translate(26.6875,35.9375)"/>
<path d="M0 0 C0.99 0.99 1.98 1.98 3 3 C1.68 3.99 0.36 4.98 -1 6 C-1.66 5.01 -2.32 4.02 -3 3 C-2.01 2.01 -1.02 1.02 0 0 Z " fill="#E8F1E8" transform="translate(28,11)"/>
</svg>
