<?xml version="1.0" encoding="UTF-8"?>
<svg version="1.1" xmlns="http://www.w3.org/2000/svg" width="1292" height="976">
<path d="M0 0 C0.98050323 -0.00133942 1.96100647 -0.00267883 2.97122192 -0.00405884 C21.35619219 0.00134418 39.4347069 1.10958269 57.6875 3.25 C58.72261719 3.36746582 59.75773438 3.48493164 60.82421875 3.60595703 C81.51858282 6.00424113 101.99099208 10.00129246 122.25 14.8125 C123.44439697 15.09319336 124.63879395 15.37388672 125.86938477 15.66308594 C131.88712757 17.13097362 137.55659667 18.85369376 143.26245117 21.26098633 C147.6078134 23.03316617 152.09671593 24.37880991 156.5625 25.8125 C177.29939609 32.63571288 197.25052397 40.48014749 216.39013672 51.00830078 C219.87962114 52.89432817 223.43737708 54.63244602 227 56.375 C238.11085305 61.87921474 248.88326465 67.65165847 258.78515625 75.15625 C262.29348303 77.687156 265.93645668 79.93137554 269.625 82.1875 C280.29790066 88.76330351 289.98997974 96.42317198 299.66894531 104.36450195 C305.00939994 108.73846017 310.47005214 112.92133306 316.015625 117.03125 C318.6875 119.25 318.6875 119.25 320.546875 121.59375 C322.95926517 124.58722685 325.62933447 126.90922223 328.54248047 129.40283203 C332.03006425 132.40613944 335.38694528 135.54625685 338.75 138.6875 C339.41837891 139.30431641 340.08675781 139.92113281 340.77539062 140.55664062 C346.22169404 145.64303284 351.21096381 151.0229983 355.75 156.9375 C357.67011635 159.38590258 357.67011635 159.38590258 360.4375 161.4375 C364.92037765 165.0574237 368.2018043 169.70129071 371.6875 174.25 C372.50502068 175.31264439 373.32273542 176.37513951 374.140625 177.4375 C375.76530052 179.54846454 377.38429784 181.66337015 379 183.78125 C380.46351503 185.69163332 381.95110995 187.57273843 383.47363281 189.43676758 C388.84792981 196.02472242 393.68791403 202.88904693 398.4375 209.9375 C399.17871094 211.02611328 399.91992188 212.11472656 400.68359375 213.23632812 C410.6875 228.00870315 410.6875 228.00870315 410.6875 231.25 C411.3475 231.58 412.0075 231.91 412.6875 232.25 C418.61617588 240.72550144 423.19450105 249.95866857 427.69970703 259.23925781 C428.69357445 261.2623651 429.71461157 263.26927497 430.74609375 265.2734375 C431.23613892 266.23068726 431.23613892 266.23068726 431.73608398 267.20727539 C432.63413394 268.95843823 433.53570644 270.7077933 434.4375 272.45703125 C435.6875 275.25 435.6875 275.25 435.6875 278.25 C436.3475 278.25 437.0075 278.25 437.6875 278.25 C443.17244851 290.39814521 448.06058164 302.6877857 452.5 315.25 C452.73006744 315.89873077 452.96013489 316.54746155 453.19717407 317.21585083 C455.91267318 324.8932423 458.44542005 332.60829072 460.79345703 340.40649414 C461.52038612 342.71849391 462.31746512 344.9384698 463.22265625 347.18359375 C465.48591822 353.03812218 466.72209416 359.20868311 468.125 365.3125 C468.27812653 365.97572266 468.43125305 366.63894531 468.58901978 367.32226562 C473.67406844 389.41672427 477.02300357 411.74443771 479.6875 434.25 C479.77558929 434.93706528 479.86367859 435.62413055 479.95443726 436.33201599 C480.88084092 444.28720255 480.87032092 452.24883485 480.890625 460.24609375 C480.89345238 461.00860003 480.89627975 461.7711063 480.89919281 462.55671883 C480.91412029 466.6078843 480.92338518 470.65901488 480.92773438 474.71020508 C480.93208171 477.99808071 480.94583564 481.28568839 480.96875 484.57348633 C481.10627027 504.71311151 480.49332612 524.26543401 477.6875 544.25 C477.50489867 545.65831848 477.32426256 547.06689462 477.14648438 548.47583008 C476.73598241 551.63611767 476.28896781 554.78657145 475.8125 557.9375 C475.64741943 559.03578125 475.48233887 560.1340625 475.31225586 561.265625 C472.99018539 576.25421885 469.8733345 591.07036914 466.0625 605.75 C465.86857666 606.49701172 465.67465332 607.24402344 465.47485352 608.01367188 C464.37505732 612.10169027 463.05805282 616.0273515 461.53125 619.98095703 C460.11891606 623.77905645 458.89095255 627.6375312 457.63012695 631.48803711 C446.29718792 666.07933016 446.29718792 666.07933016 438.71875 680.16796875 C437.53955068 682.16146224 437.53955068 682.16146224 437.6875 684.25 C437.0275 684.25 436.3675 684.25 435.6875 684.25 C435.50985107 685.34550171 435.50985107 685.34550171 435.32861328 686.46313477 C434.68527075 689.25969034 433.78406107 691.32090004 432.4296875 693.83984375 C431.74386597 695.12979248 431.74386597 695.12979248 431.04418945 696.44580078 C430.31075317 697.80294189 430.31075317 697.80294189 429.5625 699.1875 C428.5520756 701.07872787 427.54296182 702.97065655 426.53515625 704.86328125 C426.04418457 705.78447754 425.55321289 706.70567383 425.04736328 707.65478516 C423.28152291 711.02478212 421.64175072 714.44294107 420 717.875 C417.33436815 723.27658012 414.17147413 727.95014241 410.52734375 732.734375 C408.35998732 735.69780927 406.67364953 738.78103889 404.953125 742.015625 C403.05094534 745.37379403 400.80695281 748.46055286 398.55859375 751.59375 C396.60352441 754.36921379 394.7743582 757.20766926 392.9375 760.0625 C389.56156656 765.16231435 385.83833926 769.76290202 381.84277344 774.37402344 C376.55163749 780.49846721 371.67978881 786.94139183 367.0625 793.58984375 C366.381875 794.41162109 366.381875 794.41162109 365.6875 795.25 C365.0275 795.25 364.3675 795.25 363.6875 795.25 C363.46578125 795.80171875 363.2440625 796.3534375 363.015625 796.921875 C361.26373537 799.99283448 358.99067457 802.05843962 356.4375 804.5 C353.26741804 807.57574946 350.26206045 810.59883706 347.75 814.25 C343.62654336 820.06086541 337.99674067 824.55642151 332.6875 829.25 C330.87349571 830.87332057 329.06087535 832.49818971 327.25 834.125 C326.48816406 834.80304687 325.72632813 835.48109375 324.94140625 836.1796875 C323.35108409 837.64046869 321.8007579 839.14537919 320.28125 840.6796875 C317.50736816 843.42850414 314.60933172 845.98590192 311.625 848.5 C311.06280762 848.97526123 310.50061523 849.45052246 309.92138672 849.94018555 C305.18706608 853.90575845 300.29367748 857.60377403 295.3203125 861.265625 C293.18155532 862.87762596 291.17692479 864.52490091 289.1875 866.3125 C284.40530167 870.49266386 279.00691618 873.80422967 273.6875 877.25 C272.05194318 878.3135866 270.41653724 879.37740523 268.78125 880.44140625 C266.18269487 882.13165842 263.58352333 883.82090215 260.98168945 885.50610352 C260.16917725 886.03260498 259.35666504 886.55910645 258.51953125 887.1015625 C257.70709961 887.62685547 256.89466797 888.15214844 256.05761719 888.69335938 C254.5457712 889.68630643 253.04497626 890.69643458 251.55957031 891.72851562 C244.97522361 896.28807706 237.9410773 899.88548255 230.8125 903.5 C228.20343205 904.8300866 225.59576637 906.1629074 222.98828125 907.49609375 C222.03120522 907.98440926 222.03120522 907.98440926 221.05479431 908.48258972 C217.49947435 910.30183551 213.97473931 912.16389276 210.48046875 914.09765625 C189.18815417 925.86577924 165.87036882 933.0293618 142.8243866 940.53730774 C139.70513711 941.5598018 136.62852781 942.63382002 133.58203125 943.85546875 C114.11628025 951.33117901 91.18583745 954.29294623 70.6875 957.25 C70.02453918 957.34817017 69.36157837 957.44634033 68.67852783 957.54748535 C23.41419013 964.21238858 -25.08363845 964.15865897 -70.3125 957.25 C-71.01777832 957.14345093 -71.72305664 957.03690186 -72.44970703 956.92712402 C-94.02360779 953.63541831 -115.17835027 948.64113359 -136.3125 943.25 C-136.3125 942.59 -136.3125 941.93 -136.3125 941.25 C-137.15820557 941.11174805 -137.15820557 941.11174805 -138.02099609 940.97070312 C-145.58692762 939.60801784 -152.69008013 937.2821376 -159.9375 934.75 C-160.56213135 934.5336792 -161.1867627 934.3173584 -161.83032227 934.09448242 C-173.75698117 929.9562909 -185.42023051 925.26164978 -197.00195312 920.23632812 C-199.42428564 919.20228085 -201.86371724 918.21953578 -204.3125 917.25 C-204.3125 916.59 -204.3125 915.93 -204.3125 915.25 C-205.15425781 914.9921875 -205.99601562 914.734375 -206.86328125 914.46875 C-210.56525481 913.16069139 -214.01099756 911.53118825 -217.5 909.75 C-218.1906958 909.3988916 -218.8813916 909.0477832 -219.59301758 908.68603516 C-221.07351675 907.93116723 -222.55289907 907.17410553 -224.03125 906.41503906 C-226.2948274 905.25902543 -228.56846257 904.12494443 -230.84375 902.9921875 C-242.456283 897.1325512 -253.16768797 890.26862355 -263.88232422 882.91015625 C-266.80381624 880.91436102 -269.75254434 878.96245488 -272.70678711 877.015625 C-281.03069684 871.52356085 -288.82183404 865.70745659 -296.45410156 859.28662109 C-301.60321934 854.96878722 -306.88550332 850.82794629 -312.18359375 846.6953125 C-313.21613281 845.88835938 -314.24867188 845.08140625 -315.3125 844.25 C-316.22515625 843.54230469 -317.1378125 842.83460938 -318.078125 842.10546875 C-320.34339608 840.22434329 -322.05208397 838.14791588 -323.89453125 835.86328125 C-326.01724645 833.44818103 -328.44227995 831.44273139 -330.87890625 829.3515625 C-339.02268645 822.31889196 -346.69099594 815.32168428 -353.21484375 806.72265625 C-355.22519107 804.35291723 -357.38456765 802.52663715 -359.79760742 800.58325195 C-362.40313506 798.29013569 -364.41490884 795.57316382 -366.5 792.8125 C-367.45940649 791.56622998 -368.41904871 790.32014141 -369.37890625 789.07421875 C-369.86375488 788.4404834 -370.34860352 787.80674805 -370.84814453 787.15380859 C-372.72671409 784.71148025 -374.6370911 782.29525826 -376.54980469 779.87963867 C-410.3125 737.18919335 -410.3125 737.18919335 -410.3125 729.25 C-410.9725 729.25 -411.6325 729.25 -412.3125 729.25 C-418.01520584 719.32306761 -423.40245506 709.30552374 -428.43554688 699.02294922 C-430.0730294 695.71242637 -431.78776885 692.44035788 -433.5 689.16796875 C-434.3125 687.25 -434.3125 687.25 -434.3125 684.25 C-434.9725 684.25 -435.6325 684.25 -436.3125 684.25 C-445.58110844 662.65049327 -453.80253966 640.80107401 -460.66088867 618.31640625 C-461.32004445 616.22607486 -462.03892015 614.16283543 -462.76171875 612.09375 C-464.83030373 605.91720486 -466.27355097 599.58918571 -467.75 593.25 C-467.97869278 592.27222092 -467.97869278 592.27222092 -468.21200562 591.27468872 C-471.02537421 579.1824495 -473.17335217 567.04204197 -474.94677734 554.75244141 C-475.4045682 551.62002732 -475.92280957 548.49850296 -476.4375 545.375 C-478.63071051 530.66385042 -479.61239427 516.15391613 -479.54296875 501.2890625 C-479.54177171 499.55699702 -479.54132489 497.82493087 -479.5415802 496.09286499 C-479.54003549 492.50815621 -479.53189424 488.92355017 -479.51831055 485.33886719 C-479.50114214 480.75161373 -479.49750248 476.16447035 -479.49825573 471.57718849 C-479.49798397 468.02042599 -479.49250464 464.46368738 -479.48525429 460.90693283 C-479.48208403 459.21408645 -479.48010407 457.5212374 -479.47936058 455.82838821 C-479.47718969 453.47490037 -479.46843454 451.12152911 -479.45776367 448.76806641 C-479.45844345 447.73174324 -479.45844345 447.73174324 -479.45913696 446.67448425 C-479.4352741 443.07051586 -479.133391 439.75841836 -478.3125 436.25 C-478.16798416 434.9099882 -478.04793074 433.56709975 -477.953125 432.22265625 C-475.98996689 407.2053742 -471.11662409 382.63367316 -465.3125 358.25 C-465.07950195 357.23196289 -464.84650391 356.21392578 -464.60644531 355.16503906 C-463.25990965 349.46452303 -461.59739401 344.1546676 -459.33007812 338.75634766 C-457.49463291 334.23555096 -456.06585631 329.57685299 -454.5625 324.9375 C-444.01761009 293.08018875 -430.29766551 261.68935262 -412.3125 233.25 C-411.50232422 231.95449219 -411.50232422 231.95449219 -410.67578125 230.6328125 C-407.03614429 224.85846711 -403.28865343 219.16049224 -399.48046875 213.49609375 C-397.92344655 211.16476861 -396.38571834 208.82627135 -394.86328125 206.47265625 C-390.7628757 200.16610144 -386.68254496 194.26903465 -381.51953125 188.76953125 C-377.9489292 184.69335723 -374.79832343 180.29994229 -371.61181641 175.92016602 C-368.75668296 172.0317688 -365.79912352 168.60665214 -362.3125 165.25 C-360.84299168 163.63509863 -359.38452098 162.01008147 -357.9375 160.375 C-355.20850576 157.31453058 -352.44633589 154.3512928 -349.5 151.5 C-347.41915737 149.47106047 -346.09729007 147.89644083 -344.5625 145.375 C-341.67360384 141.36264422 -338.14441594 138.7539727 -334.27734375 135.70703125 C-330.3273596 132.43359247 -326.84537881 128.83896221 -323.30859375 125.12109375 C-321.3125 123.25 -321.3125 123.25 -319.3125 123.25 C-319.09207031 122.68539062 -318.87164062 122.12078125 -318.64453125 121.5390625 C-316.88887393 118.52200915 -314.70721333 116.8266278 -312 114.625 C-311.47599609 114.19767578 -310.95199219 113.77035156 -310.41210938 113.33007812 C-308.72077525 111.95899662 -307.01888203 110.6022994 -305.3125 109.25 C-304.72807129 108.78625977 -304.14364258 108.32251953 -303.54150391 107.84472656 C-301.8040328 106.47256007 -300.0603253 105.1089473 -298.3125 103.75 C-297.77326904 103.32895996 -297.23403809 102.90791992 -296.6784668 102.47412109 C-294.00013748 100.41749418 -291.40644754 98.6184768 -288.3125 97.25 C-288.3125 96.59 -288.3125 95.93 -288.3125 95.25 C-286.19847106 93.67755635 -284.08772865 92.23502726 -281.875 90.8125 C-280.87303589 90.15640747 -280.87303589 90.15640747 -279.85083008 89.48706055 C-277.67658802 88.06651546 -275.49553369 86.65699242 -273.3125 85.25 C-272.58063477 84.77755859 -271.84876953 84.30511719 -271.09472656 83.81835938 C-270.36479492 83.34720703 -269.63486328 82.87605469 -268.8828125 82.390625 C-268.15118896 81.91810303 -267.41956543 81.44558105 -266.66577148 80.95874023 C-265.27120775 80.05968602 -263.87500897 79.16316037 -262.47680664 78.26977539 C-258.73068676 75.86505688 -255.07351394 73.37596493 -251.453125 70.78515625 C-246.44929988 67.26415857 -241.26214237 64.26647019 -235.875 61.375 C-234.93430664 60.86614258 -233.99361328 60.35728516 -233.02441406 59.83300781 C-226.61168932 56.39754273 -220.13139794 53.12611257 -213.5625 50 C-212.7588501 49.61730957 -211.9552002 49.23461914 -211.12719727 48.84033203 C-205.57501389 46.25 -205.57501389 46.25 -203.3125 46.25 C-203.3125 45.59 -203.3125 44.93 -203.3125 44.25 C-182.79702639 35.55441957 -162.11949591 27.86307242 -140.89019775 21.08743286 C-137.63838246 20.04276295 -134.43244371 18.92662591 -131.24633789 17.69921875 C-125.40553214 15.48400885 -119.33586382 14.23182256 -113.25 12.875 C-112.57632385 12.72381714 -111.90264771 12.57263428 -111.20855713 12.41687012 C-86.50516297 6.9056731 -61.53284304 3.35975588 -36.3125 1.25 C-35.18175049 1.15428711 -34.05100098 1.05857422 -32.88598633 0.95996094 C-21.92766588 0.12717336 -10.98575284 0.00892971 0 0 Z " fill="#CE0303" transform="translate(647.3125,12.75)"/>
<path d="M0 0 C0.78927887 -0.00335861 1.57855774 -0.00671722 2.39175415 -0.01017761 C4.99311917 -0.01965297 7.59441959 -0.02162899 10.19580078 -0.02270508 C12.01034573 -0.02591996 13.82489041 -0.02928421 15.63943481 -0.03279114 C19.4406189 -0.03877381 23.24178029 -0.04063192 27.04296875 -0.04003906 C31.90398521 -0.03993747 36.76485549 -0.05359018 41.62583733 -0.07081127 C45.37314518 -0.08195164 49.12041792 -0.08395765 52.86774063 -0.08342934 C54.65942005 -0.08460636 56.45110047 -0.0890125 58.24276352 -0.0967617 C60.75309118 -0.10660302 63.26310434 -0.10366732 65.7734375 -0.09765625 C66.5071759 -0.10327576 67.24091431 -0.10889526 67.99688721 -0.11468506 C72.65656943 -0.08645545 76.59847678 0.6934908 81.01611328 2.14526367 C81.83595703 2.39405273 82.65580078 2.6428418 83.50048828 2.89916992 C95.94518822 7.34064042 103.66458677 16.0638573 109.76611328 27.39526367 C112.18519876 32.71725173 113.80886714 37.91905566 115.18017578 43.58666992 C115.37711029 44.39136215 115.5740448 45.19605438 115.77694702 46.02513123 C116.19055003 47.7199171 116.60226702 49.41516423 117.01220703 51.11083984 C117.64018529 53.70393175 118.27699365 56.29474681 118.91455078 58.88549805 C119.31612755 60.53575855 119.71718694 62.18614506 120.11767578 63.83666992 C120.30826569 64.60966934 120.49885559 65.38266876 120.69522095 66.17909241 C121.52298541 69.63023827 122.01611328 72.57360168 122.01611328 76.14526367 C122.67611328 76.14526367 123.33611328 76.14526367 124.01611328 76.14526367 C124.30333252 77.30985107 124.59055176 78.47443848 124.88647461 79.67431641 C125.9619059 84.03069852 127.04214652 88.38587654 128.1237793 92.74072266 C128.58959293 94.6189826 129.05413425 96.49755858 129.51733398 98.37646484 C130.18668675 101.09062186 130.860739 103.80357653 131.53564453 106.51635742 C131.73889847 107.34485703 131.9421524 108.17335663 132.15156555 109.02696228 C133.3361339 113.76657786 134.72790318 118.3730796 136.30805969 122.99497986 C137.38911938 126.27804372 138.23601399 129.60612879 139.05908203 132.96166992 C139.31906731 134.01281227 139.31906731 134.01281227 139.58430481 135.08518982 C139.94504893 136.55092017 140.30373394 138.01715878 140.66040039 139.48388672 C141.20384896 141.70872853 141.76113388 143.92982035 142.31884766 146.15112305 C142.67061274 147.58776326 143.02155249 149.02460587 143.37158203 150.46166992 C143.5371611 151.11398087 143.70274017 151.76629181 143.87333679 152.43836975 C145.65016805 159.88928883 145.88691956 166.30683924 142.01611328 173.14526367 C137.23782459 178.08021756 132.80951443 180.37619939 126.01611328 181.14526367 C126.01611328 181.80526367 126.01611328 182.46526367 126.01611328 183.14526367 C124.01611328 183.14526367 124.01611328 183.14526367 121.70361328 180.89526367 C120.81673828 179.98776367 119.92986328 179.08026367 119.01611328 178.14526367 C118.19111328 177.56776367 117.36611328 176.99026367 116.51611328 176.39526367 C109.84998674 170.39574978 107.82035677 161.84792071 105.89111328 153.39526367 C105.5138208 151.81225464 105.5138208 151.81225464 105.12890625 150.19726562 C104.41308257 147.18250206 103.71411897 144.16419067 103.01611328 141.14526367 C102.66899839 139.69560228 102.32031295 138.24631494 101.96923828 136.79760742 C100.01611328 128.62580612 100.01611328 128.62580612 100.01611328 125.14526367 C99.35611328 125.14526367 98.69611328 125.14526367 98.01611328 125.14526367 C96.60441428 119.45414909 95.19877659 113.76158342 93.79858398 108.06762695 C93.32203255 106.13330323 92.84386585 104.19937668 92.36401367 102.26586914 C91.67211319 99.47671269 90.98615323 96.6861503 90.30126953 93.89526367 C90.08769302 93.039729 89.87411652 92.18419434 89.65406799 91.30273438 C88.42225859 86.2541289 87.56065779 81.31452828 87.01611328 76.14526367 C86.35611328 76.14526367 85.69611328 76.14526367 85.01611328 76.14526367 C84.02611328 70.20526367 84.02611328 70.20526367 83.01611328 64.14526367 C78.06611328 64.64026367 78.06611328 64.64026367 73.01611328 65.14526367 C73.46992224 67.0421851 73.9293632 68.93775963 74.39111328 70.83276367 C74.64634766 71.88850586 74.90158203 72.94424805 75.16455078 74.03198242 C75.91093534 77.03070563 75.91093534 77.03070563 76.93847656 79.328125 C78.31378093 82.92342111 79.20741637 86.59834761 80.10986328 90.33276367 C80.30205444 91.11288818 80.49424561 91.8930127 80.69226074 92.69677734 C81.51015294 96.01717058 82.31962211 99.33960299 83.12988281 102.66186523 C83.72446633 105.09455578 84.3233166 107.52616901 84.92236328 109.95776367 C85.10263062 110.70372803 85.28289795 111.44969238 85.46862793 112.21826172 C86.17291699 115.07562569 86.89493526 117.84518084 87.99804688 120.5769043 C89.52387386 124.42623281 90.4198393 128.408356 91.39892578 132.42651367 C91.61805634 133.31761841 91.83718689 134.20872314 92.06295776 135.12683105 C92.52367281 137.00572411 92.98246487 138.88508961 93.43945312 140.76489258 C94.13908028 143.63691804 94.8487393 146.50634104 95.55908203 149.37573242 C96.00630947 151.20500978 96.4529441 153.03443219 96.89892578 154.86401367 C97.21762131 156.14701355 97.21762131 156.14701355 97.54275513 157.45593262 C98.49901106 161.42569449 99.29992408 165.02738884 99.01611328 169.14526367 C99.67611328 169.14526367 100.33611328 169.14526367 101.01611328 169.14526367 C101.1494809 169.68317535 101.28284851 170.22108704 101.42025757 170.77529907 C102.81261597 176.38908379 104.20832543 182.0020278 105.60595703 187.61450195 C106.12666898 189.70738833 106.64653483 191.80048541 107.16552734 193.89379883 C107.91295984 196.9078705 108.66346208 199.9211638 109.41455078 202.93432617 C109.64483978 203.86580475 109.87512878 204.79728333 110.11239624 205.75698853 C111.02900813 209.42406526 111.9710906 213.01163273 113.17871094 216.59594727 C114.01611328 219.14526367 114.01611328 219.14526367 114.01611328 222.14526367 C102.79611328 222.14526367 91.57611328 222.14526367 80.01611328 222.14526367 C80.02658691 225.31966064 80.03706055 228.49405762 80.04785156 231.76464844 C80.08100504 242.25796196 80.10308849 252.75127781 80.11973763 263.24462986 C80.1301706 269.60614863 80.1443211 275.9676137 80.16699219 282.32910156 C80.18873765 288.46934982 80.20068557 294.60954645 80.20586777 300.74983025 C80.20956044 303.09135691 80.21677129 305.43288079 80.22757339 307.77438545 C80.24211074 311.05635795 80.24409026 314.33811762 80.24316406 317.62011719 C80.25035461 318.58612854 80.25754517 319.55213989 80.26495361 320.54742432 C80.24890067 325.81129036 79.74399734 330.16361607 78.01611328 335.14526367 C77.35611328 335.14526367 76.69611328 335.14526367 76.01611328 335.14526367 C75.78923828 335.74338867 75.56236328 336.34151367 75.32861328 336.95776367 C73.64901282 339.75709778 71.92506204 340.72626428 69.01611328 342.14526367 C68.02611328 342.14526367 67.03611328 342.14526367 66.01611328 342.14526367 C66.01611328 342.80526367 66.01611328 343.46526367 66.01611328 344.14526367 C52.02544731 344.90265311 52.02544731 344.90265311 46.01611328 340.14526367 C42.14190515 336.16718937 38.77777893 332.42873029 38.73764038 326.72236633 C38.7264769 325.81792786 38.71531342 324.91348938 38.70381165 323.98164368 C38.70165146 322.99190048 38.69949127 322.00215729 38.69726562 320.98242188 C38.68722 319.93835175 38.67717438 318.89428162 38.66682434 317.818573 C38.63588709 314.36106934 38.61892781 310.90364348 38.60205078 307.44604492 C38.58334763 305.05135931 38.56377487 302.65668034 38.54336548 300.26200867 C38.49194827 293.9540905 38.45237385 287.64615094 38.41522217 281.33813477 C38.3752426 274.90334745 38.32412271 268.46864984 38.27392578 262.03393555 C38.17705295 249.40444119 38.09268454 236.77489629 38.01611328 224.14526367 C35.04611328 224.14526367 32.07611328 224.14526367 29.01611328 224.14526367 C29.01246765 225.45547485 29.00882202 226.76568604 29.00506592 228.11560059 C28.9680936 240.47481896 28.91029601 252.83378869 28.83221054 265.19281769 C28.79273432 271.54644287 28.76054631 277.89992942 28.74511719 284.25366211 C28.72995193 290.38760937 28.69550772 296.52117551 28.64780426 302.654953 C28.6329893 304.99282007 28.6250722 307.33074154 28.62422943 309.6686554 C28.62185849 312.94837885 28.59476661 316.22705017 28.56201172 319.5065918 C28.56955727 320.95021591 28.56955727 320.95021591 28.57725525 322.42300415 C28.46841121 329.48663967 26.930566 334.93757033 22.11376953 340.23901367 C15.6188018 344.72689924 9.76475462 344.9931067 2.01611328 344.14526367 C1.02611328 343.81526367 0.03611328 343.48526367 -0.98388672 343.14526367 C-0.98388672 342.48526367 -0.98388672 341.82526367 -0.98388672 341.14526367 C-2.34513672 340.80495117 -2.34513672 340.80495117 -3.73388672 340.45776367 C-7.48162487 338.94425404 -8.7860744 337.48268238 -10.98388672 334.14526367 C-11.92958661 331.308164 -12.10752156 329.58393881 -12.10414124 326.6464386 C-12.10620323 325.26453842 -12.10620323 325.26453842 -12.10830688 323.85472107 C-12.10291397 322.34205406 -12.10291397 322.34205406 -12.09741211 320.79882812 C-12.09755814 319.73525085 -12.09770416 318.67167358 -12.09785461 317.5758667 C-12.09715684 314.0534055 -12.08937073 310.5309969 -12.08154297 307.00854492 C-12.07967831 304.56902597 -12.07825463 302.12950664 -12.07725525 299.68998718 C-12.07343385 293.26365122 -12.06360676 286.83733779 -12.05255127 280.41101074 C-12.04232905 273.85563461 -12.03775589 267.30025485 -12.03271484 260.74487305 C-12.02198418 247.87832508 -12.0043904 235.01179978 -11.98388672 222.14526367 C-23.53388672 222.14526367 -35.08388672 222.14526367 -46.98388672 222.14526367 C-46.11763672 218.06151367 -46.11763672 218.06151367 -45.23388672 213.89526367 C-45.06147461 213.06478516 -44.8890625 212.23430664 -44.71142578 211.37866211 C-43.74944612 206.9551827 -42.54102281 202.71787092 -41.06201172 198.43823242 C-38.73251045 191.63100854 -37.09968302 184.71323668 -35.48388672 177.70776367 C-33.59663679 169.5512246 -31.53387859 161.54574609 -29.01025391 153.56298828 C-27.03687446 146.99178495 -25.47703915 140.3111314 -23.85888672 133.64526367 C-23.172959 130.82130497 -22.48217487 127.99859631 -21.78857422 125.17651367 C-21.33973877 123.32896484 -21.33973877 123.32896484 -20.88183594 121.4440918 C-19.98388672 118.14526367 -19.98388672 118.14526367 -19.01342773 115.77929688 C-17.51191841 111.93775451 -16.64986656 107.97934165 -15.70654297 103.96948242 C-15.27105027 102.15371422 -14.83550164 100.33795943 -14.39990234 98.5222168 C-13.72260133 95.67892529 -13.04697512 92.83524588 -12.37280273 89.99121094 C-11.71752582 87.23291887 -11.0560389 84.47616838 -10.39404297 81.71948242 C-10.19706314 80.87963303 -10.00008331 80.03978363 -9.7971344 79.17448425 C-8.54812318 73.98478136 -6.95264906 69.10831156 -4.98388672 64.14526367 C-8.28388672 64.14526367 -11.58388672 64.14526367 -14.98388672 64.14526367 C-15.31388672 65.79526367 -15.64388672 67.44526367 -15.98388672 69.14526367 C-16.64388672 69.14526367 -17.30388672 69.14526367 -17.98388672 69.14526367 C-18.12503906 70.93770508 -18.12503906 70.93770508 -18.26904297 72.76635742 C-19.00686227 79.39376415 -20.75525129 85.76378979 -22.42138672 92.20776367 C-22.73398437 93.4355957 -23.04658203 94.66342773 -23.36865234 95.9284668 C-23.96964247 98.28795659 -24.5728759 100.64687651 -25.17871094 103.00512695 C-26.12987599 106.71461297 -27.06056178 110.42876478 -27.98388672 114.14526367 C-28.64388672 114.14526367 -29.30388672 114.14526367 -29.98388672 114.14526367 C-30.17748779 115.88646484 -30.17748779 115.88646484 -30.375 117.6628418 C-30.89364951 121.79705393 -31.73608331 125.81902854 -32.72607422 129.86401367 C-32.97963181 130.91727844 -32.97963181 130.91727844 -33.23831177 131.99182129 C-33.59417848 133.46456232 -33.95226712 134.93676811 -34.3125 136.40844727 C-34.85713493 138.63809214 -35.39164308 140.86999865 -35.92529297 143.10229492 C-37.57982741 149.95040991 -39.33242876 156.60290882 -41.98388672 163.14526367 C-42.41008745 164.68432188 -42.82888995 166.22549028 -43.23388672 167.77026367 C-45.23027601 173.91871794 -49.80992881 176.6959584 -54.98388672 180.14526367 C-60.58300868 181.19636238 -65.03586563 180.57058496 -69.85888672 177.52026367 C-74.27923193 174.1404599 -77.52851656 171.32326805 -78.35498047 165.55541992 C-78.59298094 160.06698478 -77.91091671 155.35607136 -76.18310547 150.14916992 C-73.91501582 143.04886519 -72.07449794 135.88167272 -70.29638672 128.64526367 C-69.98894531 127.4103418 -69.68150391 126.17541992 -69.36474609 124.90307617 C-68.14895875 119.99736094 -66.93900746 115.1093705 -65.98388672 110.14526367 C-65.32388672 110.14526367 -64.66388672 110.14526367 -63.98388672 110.14526367 C-63.79028564 108.64745361 -63.79028564 108.64745361 -63.59277344 107.11938477 C-63.03279997 103.21158133 -62.17695089 99.39245478 -61.24169922 95.55932617 C-61.07266083 94.85810638 -60.90362244 94.1568866 -60.72946167 93.43441772 C-60.37303425 91.96003258 -60.01494733 90.48604771 -59.65527344 89.01245117 C-59.11236373 86.78453217 -58.57709147 84.55487416 -58.04248047 82.32495117 C-56.50572741 75.96724502 -54.91852665 69.69362915 -52.73925781 63.52026367 C-51.73094585 60.34997966 -50.96715316 57.1408144 -50.18701172 53.90698242 C-50.02832611 53.25419312 -49.8696405 52.60140381 -49.70614624 51.92883301 C-49.04848733 49.22184692 -48.39132625 46.51524766 -47.76513672 43.80078125 C-44.19660702 28.41707275 -37.71424869 15.67862398 -24.51904297 6.41479492 C-20.44652952 3.99568128 -17.78691647 2.89379615 -12.98388672 3.14526367 C-12.98388672 2.48526367 -12.98388672 1.82526367 -12.98388672 1.14526367 C-8.65147674 0.08236332 -4.43374474 -0.00272343 0 0 Z " fill="#D0BDA3" transform="translate(772.98388671875,336.854736328125)"/>
<path d="M0 0 C1.59006363 -0.00810448 1.59006363 -0.00810448 3.21224976 -0.01637268 C6.68069254 -0.02877635 10.14829172 -0.01242634 13.61669922 0.00561523 C16.04564456 0.00546008 18.47459016 0.00396831 20.90353394 0.00120544 C25.97877021 -0.00017473 31.05372258 0.01231785 36.12890625 0.03515625 C42.61957626 0.06356961 49.10977606 0.06078996 55.60048103 0.04806614 C60.61062608 0.0410977 65.62066326 0.04891114 70.63079453 0.06132317 C73.02368633 0.06582417 75.41658976 0.06618634 77.80948257 0.06225777 C81.15708252 0.0593334 84.5040435 0.07591083 87.8515625 0.09765625 C88.83050476 0.0931546 89.80944702 0.08865295 90.8180542 0.08401489 C96.9971093 0.1503914 102.07229097 1.1823821 107.79638672 3.50170898 C109.37419922 4.13979492 109.37419922 4.13979492 110.98388672 4.79077148 C124.1166996 11.0288576 130.88632515 19.85768386 135.85269165 33.37719727 C137.40522728 38.96099347 137.0911968 44.73636369 137.08691406 50.48608398 C137.09363129 51.78284058 137.10034851 53.07959717 137.10726929 54.41564941 C137.12486253 57.95693336 137.12962169 61.49812054 137.13090086 65.03944397 C137.13232625 67.25486242 137.13660305 69.47025656 137.14189529 71.68566895 C137.16036998 79.42254184 137.16856869 87.15934601 137.16699219 94.89624023 C137.16578988 102.09624395 137.18691609 109.29594835 137.21847951 116.49587631 C137.24466027 122.68972044 137.25535881 128.88346686 137.25408137 135.07736588 C137.25357248 138.77145181 137.25921576 142.4652712 137.28043747 146.15930176 C137.30346078 150.27885325 137.29428807 154.3977358 137.28222656 158.51733398 C137.29346558 159.7341687 137.30470459 160.95100342 137.31628418 162.20471191 C137.26668613 168.86787933 136.8334165 173.11195809 132.79638672 178.50170898 C128.67728917 182.40957076 125.0781477 184.29043482 119.42138672 184.81420898 C114.11052272 184.35637588 110.19255208 182.43248589 105.79638672 179.50170898 C105.79638672 178.51170898 105.79638672 177.52170898 105.79638672 176.50170898 C105.13638672 176.50170898 104.47638672 176.50170898 103.79638672 176.50170898 C100.72925129 170.57157914 100.35408829 165.68482798 100.36401367 159.06835938 C100.3487262 157.53063873 100.3487262 157.53063873 100.33312988 155.96185303 C100.30306127 152.59096772 100.2937431 149.22036689 100.28466797 145.84936523 C100.26781678 143.50523438 100.24966595 141.16111253 100.23027039 138.81700134 C100.18281231 132.66037817 100.15297562 126.50379155 100.12683105 120.3470459 C100.09700455 114.05933415 100.05048133 107.77174825 100.00537109 101.48413086 C99.91938553 89.15672279 99.85201896 76.82928879 99.79638672 64.50170898 C96.82638672 64.50170898 93.85638672 64.50170898 90.79638672 64.50170898 C90.79492016 65.87130296 90.7934536 67.24089693 90.7919426 68.65199375 C90.75624029 101.16369794 90.69999869 133.67529725 90.61846577 166.18691785 C90.60844832 170.18857637 90.59860418 174.19023531 90.58886719 178.19189453 C90.58595513 179.38688149 90.58595513 179.38688149 90.58298424 180.6060096 C90.5519635 193.50523002 90.53498338 206.40443265 90.5231925 219.30368335 C90.51078132 232.53960317 90.48328068 245.77542962 90.44177365 259.01129049 C90.41663725 267.17849101 90.40326954 275.34553668 90.40495715 283.51277643 C90.40499042 289.77554098 90.38402913 296.03807525 90.35521889 302.30076981 C90.3466913 304.86984474 90.34498923 307.43895267 90.35058403 310.00803566 C90.35720201 313.51356222 90.33935422 317.01814346 90.31536865 320.52357483 C90.32312907 321.54206813 90.33088949 322.56056144 90.33888507 323.60991818 C90.25223453 330.7553921 88.94201829 335.20105656 83.89404297 340.49780273 C77.41075123 345.08961588 71.587702 345.35422132 63.79638672 344.50170898 C62.80638672 344.17170898 61.81638672 343.84170898 60.79638672 343.50170898 C60.79638672 342.84170898 60.79638672 342.18170898 60.79638672 341.50170898 C60.23951172 341.43983398 59.68263672 341.37795898 59.10888672 341.31420898 C55.72599651 340.12562594 54.09303077 338.22141905 51.79638672 335.50170898 C50.090674 331.3079729 49.5480631 327.78443488 49.55587769 323.27542114 C49.55312836 322.04712082 49.55037903 320.8188205 49.54754639 319.55329895 C49.55462319 318.2055349 49.56189278 316.85777185 49.56933594 315.51000977 C49.56990052 314.08057157 49.56958257 312.6511328 49.56845093 311.22169495 C49.56787825 307.3522878 49.57961881 303.48300522 49.59359884 299.61362696 C49.60612033 295.56573783 49.60727782 291.51784569 49.60964966 287.46994019 C49.61586026 279.8096388 49.63226539 272.14939466 49.65234864 264.48911846 C49.67472071 255.76605781 49.68570436 247.0429944 49.69573951 238.3199122 C49.71663199 220.3804787 49.75179981 202.44109845 49.79638672 184.50170898 C46.49638672 184.83170898 43.19638672 185.16170898 39.79638672 185.50170898 C39.79399837 186.24862314 39.79161001 186.9955373 39.78914928 187.76508522 C39.73000109 205.94313182 39.65445216 224.12104263 39.56067181 242.29894447 C39.51571529 251.08966498 39.47630029 259.88034498 39.44995117 268.67114258 C39.42696992 276.33362719 39.39357049 283.99598361 39.34768516 291.65836656 C39.3237546 295.71517167 39.30502475 299.77184984 39.29877281 303.82872391 C39.29272116 307.64878167 39.27271866 311.46851466 39.24211121 315.28845215 C39.23333223 316.68883381 39.22960812 318.08925792 39.23137856 319.48966599 C39.23303569 321.40563383 39.21453775 323.32158717 39.19511414 325.23745728 C39.19050517 326.30858072 39.18589621 327.37970417 39.18114758 328.4832859 C38.57461127 333.24152246 36.60623192 337.50825919 32.79638672 340.50170898 C26.53560714 345.26534562 20.50515221 345.45557138 12.79638672 344.50170898 C7.37339383 342.80224994 3.96587105 339.02954375 0.79638672 334.50170898 C-1.65126667 328.98277598 -1.49343572 323.68101799 -1.48208618 317.75772095 C-1.48787858 316.67453658 -1.49367099 315.5913522 -1.49963892 314.47534406 C-1.51664492 310.84559309 -1.51951599 307.21596923 -1.52246094 303.58618164 C-1.53175868 300.98434131 -1.54192712 298.38250396 -1.55290222 295.78067017 C-1.57515659 290.17898725 -1.59018082 284.57732254 -1.60026932 278.97560501 C-1.614866 270.87650769 -1.6404056 262.77747384 -1.6686006 254.67841379 C-1.71405062 241.53766052 -1.75067283 228.39689809 -1.78173828 215.25610352 C-1.81193116 202.49241531 -1.84628482 189.72874946 -1.88623047 176.96508789 C-1.88869202 176.1780974 -1.89115357 175.39110691 -1.89368971 174.58026822 C-1.90606445 170.632097 -1.91852096 166.68392604 -1.93101811 162.73575521 C-2.0345591 129.9911033 -2.12362402 97.24642699 -2.20361328 64.50170898 C-5.83361328 64.50170898 -9.46361328 64.50170898 -13.20361328 64.50170898 C-13.20139267 65.83333069 -13.19917206 67.16495239 -13.19688416 68.53692627 C-13.17663021 81.07383544 -13.16163024 93.61074131 -13.15180111 106.14766312 C-13.14657803 112.59332205 -13.13949075 119.0389678 -13.12817383 125.48461914 C-13.11732461 131.70265584 -13.1113321 137.92067985 -13.10873604 144.13872528 C-13.10688547 146.51342723 -13.10327189 148.88812846 -13.09788322 151.26282501 C-13.09064586 154.58367934 -13.08962349 157.90448088 -13.09008789 161.2253418 C-13.08649261 162.21148972 -13.08289734 163.19763763 -13.07919312 164.21366882 C-13.08056778 165.11948196 -13.08194244 166.0252951 -13.08335876 166.95855713 C-13.08243697 167.74392475 -13.08151518 168.52929237 -13.08056545 169.33845901 C-13.20413801 171.51093393 -13.60459445 173.41443737 -14.20361328 175.50170898 C-14.86361328 175.50170898 -15.52361328 175.50170898 -16.20361328 175.50170898 C-16.24486328 176.07920898 -16.28611328 176.65670898 -16.32861328 177.25170898 C-17.65860719 180.67169332 -20.1044966 181.70422131 -23.20361328 183.50170898 C-28.40157715 185.23436361 -32.74436788 184.9469025 -37.89111328 183.37670898 C-42.22011159 180.92633258 -45.2279712 178.35748845 -46.84508038 173.62408543 C-48.31032253 167.2328069 -48.49322731 161.07437537 -48.47827148 154.53466797 C-48.48338242 153.3691188 -48.48849335 152.20356964 -48.49375916 151.00270081 C-48.50760376 147.16768181 -48.50670154 143.33284368 -48.50439453 139.49780273 C-48.50730073 137.49307393 -48.51021248 135.48834506 -48.51380128 133.48361737 C-48.52486661 127.18160561 -48.5253523 120.87965347 -48.51928711 114.57763672 C-48.5132652 108.11853055 -48.52551959 101.6596432 -48.54685718 95.20057434 C-48.5645971 89.62140645 -48.57045477 84.04230739 -48.56721944 78.46311241 C-48.56542418 75.14604884 -48.56921782 71.82926389 -48.58193398 68.51220512 C-48.7196843 27.53919169 -48.7196843 27.53919169 -35.95361328 13.68920898 C-25.84816591 4.42588222 -13.58302981 -0.13470217 0 0 Z " fill="#D0BDA3" transform="translate(453.20361328125,336.498291015625)"/>
<path d="M0 0 C6.93 0 13.86 0 21 0 C21 207.9 21 415.8 21 630 C14.07 630 7.14 630 0 630 C0 422.1 0 214.2 0 0 Z " fill="#D0BEA4" transform="translate(635,178)"/>
<path d="M0 0 C0 0.66 0 1.32 0 2 C0.59039063 2.11472656 1.18078125 2.22945313 1.7890625 2.34765625 C8.51801543 4.33305402 12.52732226 10.68072197 15.77734375 16.49609375 C20.37703382 25.91590633 20.06082344 35.97010188 16.8515625 45.80859375 C16.01956959 47.94963972 15.06548661 49.96631033 14 52 C13.34 52 12.68 52 12 52 C11.690625 53.0828125 11.690625 53.0828125 11.375 54.1875 C9.52471012 57.97218384 7.39759562 59.52258653 4 62 C3.34 62 2.68 62 2 62 C2 62.66 2 63.32 2 64 C-9.12219947 68.63942771 -21.13641519 70.22164809 -32.7265625 66.1015625 C-41.52508949 61.8383587 -48.56847854 54.68351372 -51.875 45.4375 C-54.33633645 35.92912288 -54.68416392 23.87915883 -50 15 C-37.25749891 -2.37849234 -20.34144396 -9.13122935 0 0 Z " fill="#D0BCA2" transform="translate(824,258)"/>
<path d="M0 0 C1.9783445 1.45694904 3.87434739 2.9859444 5.77734375 4.5390625 C6.66421875 5.1165625 7.55109375 5.6940625 8.46484375 6.2890625 C14.11069418 11.78232238 16.52249318 19.25071163 16.98046875 26.95703125 C17.12744022 38.77598688 15.92898828 47.06022382 8.01953125 56.2734375 C0.17316312 64.20182342 -7.60929146 66.56054615 -18.53515625 66.9140625 C-29.51377521 66.70712425 -36.98286612 63.82747277 -44.921875 56.1796875 C-52.26959494 47.7466507 -55.56862848 39.66610197 -55.5234375 28.609375 C-55.00397925 23.30685312 -53.15246554 18.47558358 -51.22265625 13.5390625 C-50.56265625 13.5390625 -49.90265625 13.5390625 -49.22265625 13.5390625 C-49.11050781 12.95125 -48.99835938 12.3634375 -48.8828125 11.7578125 C-47.52651502 7.1993689 -44.07477772 3.71768525 -40.1171875 1.19921875 C-34.91994273 -1.4609375 -34.91994273 -1.4609375 -32.22265625 -1.4609375 C-32.22265625 -2.1209375 -32.22265625 -2.7809375 -32.22265625 -3.4609375 C-20.80858595 -6.97295913 -10.15419352 -6.67428537 0 0 Z " fill="#D0BCA3" transform="translate(516.22265625,259.4609375)"/>
<path d="M0 0 C0.33 0 0.66 0 1 0 C1 207.9 1 415.8 1 630 C7.93 630 14.86 630 22 630 C22 422.1 22 214.2 22 0 C22.33 0 22.66 0 23 0 C23 27.39 23 54.78 23 83 C23.66 83 24.32 83 25 83 C25.33 84.32 25.66 85.64 26 87 C25.01 87 24.02 87 23 87 C23.33 199.53 23.66 312.06 24 428 C25.32 428.33 26.64 428.66 28 429 C28 429.99 28 430.98 28 432 C26.68 432.33 25.36 432.66 24 433 C24 453.46 24 473.92 24 495 C24.66 495 25.32 495 26 495 C26 495.66 26 496.32 26 497 C25.34 497.33 24.68 497.66 24 498 C23.67 541.89 23.34 585.78 23 631 C15.41 631 7.82 631 0 631 C-0.01030746 628.9292218 -0.02061493 626.8584436 -0.03123474 624.72491455 C-0.1286776 605.24195074 -0.23151169 585.75902075 -0.33933926 566.2761116 C-0.39464868 556.25895608 -0.44812696 546.24179699 -0.49731445 536.22460938 C-0.5401842 527.49499238 -0.58646928 518.76540137 -0.63687855 510.03582454 C-0.66345696 505.4123725 -0.68830952 500.78892553 -0.70907402 496.16544342 C-0.7286649 491.8152879 -0.75281608 487.46518172 -0.78049088 483.11507034 C-0.78984831 481.51710278 -0.79752828 479.91912439 -0.80341911 478.32114029 C-0.81170252 476.14171272 -0.82598542 473.9624042 -0.84178162 471.78302002 C-0.84823417 470.56256611 -0.85468672 469.3421122 -0.8613348 468.08467484 C-0.97627382 465.52780052 -1.24460895 463.42912669 -2 461 C-1.67 461 -1.34 461 -1 461 C-0.95426375 421.0323051 -0.91900176 381.06461361 -0.89786934 341.09689779 C-0.8953678 336.3827951 -0.89277917 331.66869246 -0.89013672 326.95458984 C-0.88934979 325.54679722 -0.88934979 325.54679722 -0.88854696 324.11056434 C-0.87983448 308.89617072 -0.86405989 293.68179215 -0.84569441 278.46740748 C-0.82701877 262.86644756 -0.81588824 247.26549555 -0.81182301 231.66452491 C-0.80907309 222.0309529 -0.80037482 212.39742343 -0.78416707 202.7638645 C-0.77362899 196.165801 -0.77039213 189.56775962 -0.77299725 182.96968831 C-0.77428351 179.15785976 -0.77225459 175.34610575 -0.76158905 171.53429031 C-0.75013252 167.40986519 -0.7540016 163.28560061 -0.75949097 159.16116333 C-0.75075244 157.33726521 -0.75075244 157.33726521 -0.74183738 155.47652066 C-0.74581948 154.37875235 -0.74980158 153.28098404 -0.75390434 152.14995003 C-0.7531449 151.196852 -0.75238546 150.24375397 -0.75160301 149.26177418 C-0.78330678 146.79956821 -0.78330678 146.79956821 -3 145 C-3.125 142.375 -3.125 142.375 -3 140 C-2.01 139.67 -1.02 139.34 0 139 C0 93.13 0 47.26 0 0 Z " fill="#CF6054" transform="translate(634,178)"/>
<path d="M0 0 C0.33 0 0.66 0 1 0 C1 208.23 1 416.46 1 631 C0.67 631 0.34 631 0 631 C-0.00634791 629.72225142 -0.00634791 629.72225142 -0.01282406 628.41868973 C-0.11606884 607.70446563 -0.22469734 586.99027588 -0.33933926 566.2761116 C-0.39464868 556.25895608 -0.44812696 546.24179699 -0.49731445 536.22460938 C-0.5401842 527.49499238 -0.58646928 518.76540137 -0.63687855 510.03582454 C-0.66345696 505.4123725 -0.68830952 500.78892553 -0.70907402 496.16544342 C-0.7286649 491.8152879 -0.75281608 487.46518172 -0.78049088 483.11507034 C-0.78984831 481.51710278 -0.79752828 479.91912439 -0.80341911 478.32114029 C-0.81170252 476.14171272 -0.82598542 473.9624042 -0.84178162 471.78302002 C-0.84823417 470.56256611 -0.85468672 469.3421122 -0.8613348 468.08467484 C-0.97627382 465.52780052 -1.24460895 463.42912669 -2 461 C-1.67 461 -1.34 461 -1 461 C-0.95426375 421.0323051 -0.91900176 381.06461361 -0.89786934 341.09689779 C-0.8953678 336.3827951 -0.89277917 331.66869246 -0.89013672 326.95458984 C-0.88934979 325.54679722 -0.88934979 325.54679722 -0.88854696 324.11056434 C-0.87983448 308.89617072 -0.86405989 293.68179215 -0.84569441 278.46740748 C-0.82701877 262.86644756 -0.81588824 247.26549555 -0.81182301 231.66452491 C-0.80907309 222.0309529 -0.80037482 212.39742343 -0.78416707 202.7638645 C-0.77362899 196.165801 -0.77039213 189.56775962 -0.77299725 182.96968831 C-0.77428351 179.15785976 -0.77225459 175.34610575 -0.76158905 171.53429031 C-0.75013252 167.40986519 -0.7540016 163.28560061 -0.75949097 159.16116333 C-0.75075244 157.33726521 -0.75075244 157.33726521 -0.74183738 155.47652066 C-0.74581948 154.37875235 -0.74980158 153.28098404 -0.75390434 152.14995003 C-0.7531449 151.196852 -0.75238546 150.24375397 -0.75160301 149.26177418 C-0.78330678 146.79956821 -0.78330678 146.79956821 -3 145 C-3.125 142.375 -3.125 142.375 -3 140 C-2.01 139.67 -1.02 139.34 0 139 C0 93.13 0 47.26 0 0 Z " fill="#CF332D" transform="translate(634,178)"/>
<path d="M0 0 C0.8146875 0.00257813 1.629375 0.00515625 2.46875 0.0078125 C3.2834375 0.00523437 4.098125 0.00265625 4.9375 0 C6.96875 0.1328125 6.96875 0.1328125 7.96875 1.1328125 C8.0616226 2.54506296 8.08621772 3.96190184 8.08227539 5.37719727 C8.08219986 6.27805557 8.08212433 7.17891388 8.08204651 8.10707092 C8.07688522 9.08622971 8.07172394 10.06538849 8.06640625 11.07421875 C8.0649913 12.07162582 8.06357635 13.0690329 8.06211853 14.09666443 C8.05650114 17.29624374 8.04394571 20.49575419 8.03125 23.6953125 C8.02623724 25.85872295 8.02167395 28.02213449 8.01757812 30.18554688 C8.00652607 35.50132575 7.98977104 40.81706421 7.96875 46.1328125 C1.34375 46.2578125 1.34375 46.2578125 -2.03125 45.1328125 C-2.03125 61.9628125 -2.03125 78.7928125 -2.03125 96.1328125 C-1.37125 96.4628125 -0.71125 96.7928125 -0.03125 97.1328125 C0.29875 98.1228125 0.62875 99.1128125 0.96875 100.1328125 C0.30875 100.1328125 -0.35125 100.1328125 -1.03125 100.1328125 C-1.36125 102.1128125 -1.69125 104.0928125 -2.03125 106.1328125 C-2.36125 106.1328125 -2.69125 106.1328125 -3.03125 106.1328125 C-3.0543705 92.45978688 -3.07216359 78.78676586 -3.08306217 65.11372471 C-3.08829164 58.76550674 -3.09539044 52.4173021 -3.10668945 46.0690918 C-3.11751606 39.94832668 -3.12352635 33.82757441 -3.12612724 27.70680046 C-3.1279819 25.36590307 -3.13160329 23.02500641 -3.13698006 20.68411446 C-3.14418748 17.41773048 -3.14524107 14.15140035 -3.14477539 10.88500977 C-3.14837067 9.9067775 -3.15196594 8.92854523 -3.15567017 7.92066956 C-3.1542955 7.03580872 -3.15292084 6.15094788 -3.15150452 5.23927307 C-3.15242631 4.46588876 -3.1533481 3.69250444 -3.15429783 2.89568424 C-2.97443301 0.31881136 -2.5674976 0.16787484 0 0 Z " fill="#CE1513" transform="translate(804.03125,559.8671875)"/>
<path d="M0 0 C0 0.99 0 1.98 0 3 C-0.66 3 -1.32 3 -2 3 C-1.62875 4.010625 -1.2575 5.02125 -0.875 6.0625 C0.31551689 10.21682118 -0.6553327 12.89522614 -2 17 C-2.17577917 18.49678624 -2.32035494 19.99748731 -2.4375 21.5 C-2.83989437 25.84436882 -4.08802799 29.09292676 -6 33 C-6.66 33 -7.32 33 -8 33 C-8 31.68 -8 30.36 -8 29 C-9.32 28.34 -10.64 27.68 -12 27 C-12 27.66 -12 28.32 -12 29 C-12.66 29 -13.32 29 -14 29 C-14.23847656 29.63164062 -14.47695313 30.26328125 -14.72265625 30.9140625 C-16 33 -16 33 -18.05859375 33.8984375 C-18.84363281 34.05570313 -19.62867188 34.21296875 -20.4375 34.375 C-21.21996094 34.54773438 -22.00242187 34.72046875 -22.80859375 34.8984375 C-25 35 -25 35 -28 33 C-27.505 32.505 -27.505 32.505 -27 32 C-27.66 31.67 -28.32 31.34 -29 31 C-30.27536232 25.55072464 -30.27536232 25.55072464 -29 23 C-28.34 23 -27.68 23 -27 23 C-27 23.99 -27 24.98 -27 26 C-24.69328085 23.28450846 -24.69328085 23.28450846 -25.375 20.8125 C-25.58125 20.214375 -25.7875 19.61625 -26 19 C-24.02 19.99 -22.04 20.98 -20 22 C-20.3403125 21.13375 -20.3403125 21.13375 -20.6875 20.25 C-21 18 -21 18 -19.5625 15.75 C-19.046875 15.1725 -18.53125 14.595 -18 14 C-18.66 14 -19.32 14 -20 14 C-19 12 -19 12 -17 10 C-16.34 10.33 -15.68 10.66 -15 11 C-14.7834375 9.576875 -14.7834375 9.576875 -14.5625 8.125 C-14 5 -14 5 -13 3 C-10.525 3.495 -10.525 3.495 -8 4 C-8 3.01 -8 2.02 -8 1 C-5.29120665 -0.35439668 -2.99066732 -0.06501451 0 0 Z " fill="#CF0C0C" transform="translate(717,197)"/>
<path d="M0 0 C0.33 0 0.66 0 1 0 C1 82.17 1 164.34 1 249 C0.67 249 0.34 249 0 249 C-0.33 183 -0.66 117 -1 49 C-2.32 48.67 -3.64 48.34 -5 48 C-5 47.34 -5 46.68 -5 46 C-3.35 46 -1.7 46 0 46 C0 30.82 0 15.64 0 0 Z " fill="#CF5A4F" transform="translate(451,415)"/>
<path d="M0 0 C0 0.99 0 1.98 0 3 C-0.66 3 -1.32 3 -2 3 C-1.62875 4.010625 -1.2575 5.02125 -0.875 6.0625 C0.55271725 11.02934732 -1.01046989 14.8560181 -3.125 19.4375 C-3.558125 20.2109375 -3.558125 20.2109375 -4 21 C-4.33 20.01 -4.66 19.02 -5 18 C-5.99 18.66 -6.98 19.32 -8 20 C-10.1875 19.625 -10.1875 19.625 -12 19 C-11.34 17.35 -10.68 15.7 -10 14 C-12.0399719 15.36323743 -12.0399719 15.36323743 -14 17 C-14 17.66 -14 18.32 -14 19 C-14.61875 18.814375 -15.2375 18.62875 -15.875 18.4375 C-18.04160178 17.76313824 -18.04160178 17.76313824 -20 19 C-19.34 17.35 -18.68 15.7 -18 14 C-18.66 14 -19.32 14 -20 14 C-19 12 -19 12 -17 10 C-16.34 10.33 -15.68 10.66 -15 11 C-14.7834375 9.576875 -14.7834375 9.576875 -14.5625 8.125 C-14 5 -14 5 -13 3 C-11.35 3.33 -9.7 3.66 -8 4 C-8 3.01 -8 2.02 -8 1 C-5.29120665 -0.35439668 -2.99066732 -0.06501451 0 0 Z " fill="#D00F0F" transform="translate(717,197)"/>
<path d="M0 0 C3.63 0 7.26 0 11 0 C12.29243536 4.1196377 13.26252625 7.66831683 13 12 C13.66 12 14.32 12 15 12 C14.25 17.75 14.25 17.75 12 20 C11.83318891 23.08347826 11.83318891 23.08347826 12 26 C10.5 24.6875 10.5 24.6875 9 23 C9 22.01 9 21.02 9 20 C8.34 20 7.68 20 7 20 C7 19.34 7 18.68 7 18 C6.34 18 5.68 18 5 18 C4.35105763 15.93847611 3.7059736 13.87573742 3.0625 11.8125 C2.52302734 10.08966797 2.52302734 10.08966797 1.97265625 8.33203125 C1 5 1 5 0 0 Z " fill="#CE0A09" transform="translate(845,401)"/>
<path d="M0 0 C0.33 0 0.66 0 1 0 C1 39.93 1 79.86 1 121 C0.67 121 0.34 121 0 121 C0.0309375 119.02966797 0.0309375 119.02966797 0.0625 117.01953125 C0.04373567 115.28383057 0.02278756 113.54815253 0 111.8125 C0.01933594 110.94818359 0.03867187 110.08386719 0.05859375 109.19335938 C-0.00173741 106.56895375 -0.14535809 104.4869858 -1 102 C-3.41724792 99.73798233 -5.97779579 98.31963273 -9 97 C-8.505 96.01 -8.505 96.01 -8 95 C-5.69 96.32 -3.38 97.64 -1 99 C-0.67 82.17 -0.34 65.34 0 48 C-0.66 48 -1.32 48 -2 48 C-1.83923477 47.43267151 -1.67846954 46.86534302 -1.51283264 46.28082275 C-0.99065169 43.95842342 -0.8424977 41.88417133 -0.79467773 39.50683594 C-0.77473251 38.62622498 -0.75478729 37.74561401 -0.73423767 36.83831787 C-0.71752518 35.89651672 -0.70081268 34.95471558 -0.68359375 33.984375 C-0.66281265 33.01340881 -0.64203156 32.04244263 -0.62062073 31.04205322 C-0.55531138 27.94477315 -0.49632677 24.84740932 -0.4375 21.75 C-0.39429708 19.64842889 -0.35068222 17.5468662 -0.30664062 15.4453125 C-0.19964902 10.29696052 -0.0983291 5.14852442 0 0 Z " fill="#D03D36" transform="translate(404,381)"/>
<path d="M0 0 C1.42041821 2.84083641 1.31452272 4.85477278 1 8 C-0.5625 10.375 -0.5625 10.375 -3 12 C-6.625 12.375 -6.625 12.375 -10 12 C-12 10 -12 10 -12.375 6.625 C-12 3 -12 3 -10.5 0.5 C-6.67586098 -1.79448341 -4.29586307 -0.98593579 0 0 Z " fill="#D93F3F" transform="translate(323,254)"/>
<path d="M0 0 C0.66 0 1.32 0 2 0 C5 6.75 5 6.75 5 9 C5.66 9 6.32 9 7 9 C7 9.66 7 10.32 7 11 C6.01 11 5.02 11 4 11 C3.87625 12.134375 3.7525 13.26875 3.625 14.4375 C3.41875 15.613125 3.2125 16.78875 3 18 C2.34 18.33 1.68 18.66 1 19 C-3.82029598 15.14376321 -3.82029598 15.14376321 -4.33203125 11.88671875 C-4.3145776 9.92143786 -4.16596091 7.95833873 -4 6 C-5.32 5.34 -6.64 4.68 -8 4 C-8 3.34 -8 2.68 -8 2 C-6.02 2.66 -4.04 3.32 -2 4 C-1.34 2.68 -0.68 1.36 0 0 Z " fill="#DACCB8" transform="translate(422,486)"/>
<path d="M0 0 C0.721875 0.350625 1.44375 0.70125 2.1875 1.0625 C5.36080196 2.12026732 6.82250476 1.83618296 10 1 C13 1 13 1 14.75 2.0625 C16.70767152 5.09689086 15.70550248 7.60076077 15 11 C14.34 10.67 13.68 10.34 13 10 C13 9.34 13 8.68 13 8 C12.01 8.66 11.02 9.32 10 10 C7.8125 9.625 7.8125 9.625 6 9 C6.66 7.35 7.32 5.7 8 4 C5.9600281 5.36323743 5.9600281 5.36323743 4 7 C4 7.66 4 8.32 4 9 C3.38125 8.814375 2.7625 8.62875 2.125 8.4375 C-0.04160178 7.76313824 -0.04160178 7.76313824 -2 9 C-1.34 7.35 -0.68 5.7 0 4 C-0.66 4 -1.32 4 -2 4 C-1.33333333 2.66666667 -0.66666667 1.33333333 0 0 Z " fill="#D52828" transform="translate(699,207)"/>
<path d="M0 0 C3.71888239 0.50712033 6.73454239 1.11608215 10 3 C10 3.66 10 4.32 10 5 C10.66 5.33 11.32 5.66 12 6 C12 6.66 12 7.32 12 8 C10.68 8.33 9.36 8.66 8 9 C8.66 9 9.32 9 10 9 C10 9.66 10 10.32 10 11 C8.68 10.67 7.36 10.34 6 10 C5.67 10.66 5.34 11.32 5 12 C4.34 11.67 3.68 11.34 3 11 C2.67 12.32 2.34 13.64 2 15 C0.02 11.535 0.02 11.535 -2 8 C-1.01 8 -0.02 8 1 8 C0.67 5.36 0.34 2.72 0 0 Z " fill="#D11616" transform="translate(634,148)"/>
<path d="M0 0 C0 1.32 0 2.64 0 4 C0.928125 3.7215625 0.928125 3.7215625 1.875 3.4375 C4 3 4 3 6 4 C6 5.98 6 7.96 6 10 C6.66 10.33 7.32 10.66 8 11 C8 11.66 8 12.32 8 13 C6.68 13 5.36 13 4 13 C3.67 13.66 3.34 14.32 3 15 C2.01 15 1.02 15 0 15 C0 14.34 0 13.68 0 13 C0.66 13 1.32 13 2 13 C2 12.34 2 11.68 2 11 C1.34 11 0.68 11 0 11 C0 10.34 0 9.68 0 9 C-0.99 9 -1.98 9 -3 9 C-3 8.34 -3 7.68 -3 7 C-3.66 6.67 -4.32 6.34 -5 6 C-5 4.35 -5 2.7 -5 1 C-3 0 -3 0 0 0 Z " fill="#D11616" transform="translate(763,147)"/>
<path d="M0 0 C3 1 6 2 9 3 C8.34 3.66 7.68 4.32 7 5 C6.01 5 5.02 5 4 5 C4.45822468 8.46941546 4.89131683 11.67395049 6 15 C3.6875 15.625 3.6875 15.625 1 16 C0.01 15.34 -0.98 14.68 -2 14 C-1.67 13.67 -1.34 13.34 -1 13 C-1.66 12.67 -2.32 12.34 -3 12 C-4.27536232 6.55072464 -4.27536232 6.55072464 -3 4 C-2.34 4 -1.68 4 -1 4 C-1 4.99 -1 5.98 -1 7 C1.30671915 4.28450846 1.30671915 4.28450846 0.625 1.8125 C0.41875 1.214375 0.2125 0.61625 0 0 Z " fill="#D21717" transform="translate(691,216)"/>
<path d="M0 0 C0.66 0 1.32 0 2 0 C2 0.66 2 1.32 2 2 C3.98 2.66 5.96 3.32 8 4 C6.54955729 8.10958767 4.48889248 11.43258745 2 15 C1 12 0 9 -1 6 C-2.65 6.66 -4.3 7.32 -6 8 C-5.25 5.5625 -5.25 5.5625 -4 3 C-1.875 2.1875 -1.875 2.1875 0 2 C0 1.34 0 0.68 0 0 Z " fill="#DACCB8" transform="translate(850,472)"/>
<path d="M0 0 C0.66 0.66 1.32 1.32 2 2 C4.57061311 2.64767793 4.57061311 2.64767793 7 3 C7 2.01 7 1.02 7 0 C7.66 0 8.32 0 9 0 C9 1.32 9 2.64 9 4 C9.66 4 10.32 4 11 4 C11 6.31 11 8.62 11 11 C10.34 11 9.68 11 9 11 C8.67 12.65 8.34 14.3 8 16 C7.34 16 6.68 16 6 16 C6 15.34 6 14.68 6 14 C5.34 14 4.68 14 4 14 C4 13.34 4 12.68 4 12 C4.66 12 5.32 12 6 12 C5.67 10.02 5.34 8.04 5 6 C3.15274948 5.30840599 3.15274948 5.30840599 1 5 C0.01 5.66 -0.98 6.32 -2 7 C-2 6.34 -2 5.68 -2 5 C-2.66 4.67 -3.32 4.34 -4 4 C-3.67 3.34 -3.34 2.68 -3 2 C-2.34 2.33 -1.68 2.66 -1 3 C-0.67 2.01 -0.34 1.02 0 0 Z " fill="#D21A1A" transform="translate(1016,678)"/>
<path d="M0 0 C2.97 0.495 2.97 0.495 6 1 C6 1.66 6 2.32 6 3 C6.66 3 7.32 3 8 3 C8 4.65 8 6.3 8 8 C8.99 8.33 9.98 8.66 11 9 C11 10.32 11 11.64 11 13 C10.401875 12.690625 9.80375 12.38125 9.1875 12.0625 C6.91043228 10.89790296 6.91043228 10.89790296 4 10 C4 9.34 4 8.68 4 8 C1.69 8 -0.62 8 -3 8 C-2.67 7.34 -2.34 6.68 -2 6 C-0.68 6 0.64 6 2 6 C2 5.01 2 4.02 2 3 C1.34 2.67 0.68 2.34 0 2 C0 1.34 0 0.68 0 0 Z " fill="#D31D1D" transform="translate(1006,415)"/>
<path d="M0 0 C2.9719385 1.12451727 5.33440687 2.22293791 8 4 C8 4.66 8 5.32 8 6 C8.99 6.33 9.98 6.66 11 7 C11.33 10.3 11.66 13.6 12 17 C11.34 16.67 10.68 16.34 10 16 C10 15.01 10 14.02 10 13 C9.01 13.33 8.02 13.66 7 14 C6.67 13.01 6.34 12.02 6 11 C4.50014391 9.33289654 4.50014391 9.33289654 3 8 C3.33 7.34 3.66 6.68 4 6 C3.01 5.67 2.02 5.34 1 5 C1.66 5 2.32 5 3 5 C3 4.01 3 3.02 3 2 C2.01 1.67 1.02 1.34 0 1 C0 0.67 0 0.34 0 0 Z " fill="#D83939" transform="translate(235,439)"/>
<path d="M0 0 C3.82191057 2.37222035 5.08893242 5.00413143 7 9 C7.66 9.33 8.32 9.66 9 10 C9 10.66 9 11.32 9 12 C8.0925 11.814375 7.185 11.62875 6.25 11.4375 C3.31685676 11.04265379 1.7355343 11.05308428 -1 12 C-0.67 11.236875 -0.34 10.47375 0 9.6875 C1.17436686 7.00930865 1.17436686 7.00930865 1 4 C0.34 4 -0.32 4 -1 4 C-1.33 5.32 -1.66 6.64 -2 8 C-4.475 7.01 -4.475 7.01 -7 6 C-2.25 1.125 -2.25 1.125 0 0 Z " fill="#D52B2B" transform="translate(807,134)"/>
<path d="M0 0 C2.00720923 0.28674418 4.0085944 0.61866701 6 1 C6 4 6 4 4.78125 5.64453125 C2.60149608 7.3032475 1.21260359 7.48405473 -1.5 7.6875 C-2.2734375 7.75324219 -3.046875 7.81898438 -3.84375 7.88671875 C-5.56054715 7.9769128 -7.28083526 8 -9 8 C-9 6.35 -9 4.7 -9 3 C-8.01 3 -7.02 3 -6 3 C-5.34 3.66 -4.68 4.32 -4 5 C-3.01 4.67 -2.02 4.34 -1 4 C-1 3.01 -1 2.02 -1 1 C-0.67 0.67 -0.34 0.34 0 0 Z " fill="#D32121" transform="translate(212,469)"/>
<path d="M0 0 C1.32 0.33 2.64 0.66 4 1 C4.33 2.32 4.66 3.64 5 5 C5.99 5 6.98 5 8 5 C8.103125 4.360625 8.20625 3.72125 8.3125 3.0625 C8.539375 2.381875 8.76625 1.70125 9 1 C9.99 0.67 10.98 0.34 12 0 C13.125 5.625 13.125 5.625 12 9 C12.33 9.66 12.66 10.32 13 11 C12.05125 10.67 11.1025 10.34 10.125 10 C7.22937548 8.89840809 7.22937548 8.89840809 5 9 C5 8.01 5 7.02 5 6 C4.01 6 3.02 6 2 6 C0 3 0 3 0 0 Z " fill="#D42424" transform="translate(673,212)"/>
<path d="M0 0 C0.66 0 1.32 0 2 0 C1.67 0.99 1.34 1.98 1 3 C1.99 3.66 2.98 4.32 4 5 C3.67 5.99 3.34 6.98 3 8 C2.34 8 1.68 8 1 8 C0.67 8.99 0.34 9.98 0 11 C-1.65 10.67 -3.3 10.34 -5 10 C-5.33 9.01 -5.66 8.02 -6 7 C-5 5 -5 5 -2 4 C-0.79117904 1.99983534 -0.79117904 1.99983534 0 0 Z " fill="#D21C1C" transform="translate(446,262)"/>
<path d="M0 0 C0 0.99 0 1.98 0 3 C-0.66 3 -1.32 3 -2 3 C-1.67 4.32 -1.34 5.64 -1 7 C-1.99 7.495 -1.99 7.495 -3 8 C-3.99 7.67 -4.98 7.34 -6 7 C-6.33 7.99 -6.66 8.98 -7 10 C-7.66 10 -8.32 10 -9 10 C-9 9.34 -9 8.68 -9 8 C-8.34 8 -7.68 8 -7 8 C-7.33 5.69 -7.66 3.38 -8 1 C-5.29120665 -0.35439668 -2.99066732 -0.06501451 0 0 Z " fill="#D31D1D" transform="translate(717,197)"/>
<path d="M0 0 C1.65 0 3.3 0 5 0 C5.33 2.97 5.66 5.94 6 9 C2.75791433 8.64950425 1.38472296 8.43778819 -0.8125 5.9375 C-1.204375 5.298125 -1.59625 4.65875 -2 4 C-1.34 2.68 -0.68 1.36 0 0 Z " fill="#D93E3E" transform="translate(827,173)"/>
<path d="M0 0 C1.32 0.33 2.64 0.66 4 1 C4 2.65 4 4.3 4 6 C3.34 6 2.68 6 2 6 C1.67 7.32 1.34 8.64 1 10 C-0.65 10.33 -2.3 10.66 -4 11 C-4 9.33333333 -4 7.66666667 -4 6 C-3.34 6 -2.68 6 -2 6 C-1.34 4.02 -0.68 2.04 0 0 Z " fill="#D42222" transform="translate(1013,664)"/>
<path d="M0 0 C4.70588235 0.70588235 4.70588235 0.70588235 6 2 C6.04080783 3.99958364 6.04254356 6.00045254 6 8 C2.62537285 7.45276317 0.91765 6.9451 -2 5 C-1.125 1.125 -1.125 1.125 0 0 Z " fill="#D83939" transform="translate(959,298)"/>
<path d="M0 0 C1.98 0.66 3.96 1.32 6 2 C6 3.32 6 4.64 6 6 C5.34 6 4.68 6 4 6 C4 6.66 4 7.32 4 8 C5.32 7.67 6.64 7.34 8 7 C7.67 7.99 7.34 8.98 7 10 C6.01 10 5.02 10 4 10 C3.67 10.66 3.34 11.32 3 12 C0.58314288 7.77050005 -0.34833144 4.87664009 0 0 Z " fill="#D21A1A" transform="translate(1002,649)"/>
<path d="M0 0 C1.2065625 0.0309375 1.2065625 0.0309375 2.4375 0.0625 C1.82211538 6.58557692 1.82211538 6.58557692 -0.125 9 C-0.599375 9.350625 -1.07375 9.70125 -1.5625 10.0625 C-4.6276341 5.6487069 -4.6276341 5.6487069 -4.3125 2.8125 C-3.15742727 0.11733029 -3.0646605 0.07474782 0 0 Z " fill="#D93C3C" transform="translate(351.5625,315.9375)"/>
<path d="M0 0 C1.32 0 2.64 0 4 0 C4 1.65 4 3.3 4 5 C3.01 5 2.02 5 1 5 C0.67 6.65 0.34 8.3 0 10 C-1.32 9.34 -2.64 8.68 -4 8 C-3.40339753 4.65902615 -2.36924875 2.45699871 0 0 Z " fill="#D93C3C" transform="translate(535,63)"/>
<path d="M0 0 C-0.94762236 3.27360452 -1.44525055 4.67284007 -4.4375 6.4375 C-5.283125 6.623125 -6.12875 6.80875 -7 7 C-7.99 6.34 -8.98 5.68 -10 5 C-9.6875 3.0625 -9.6875 3.0625 -9 1 C-5.8035914 -0.06546953 -3.34252724 -0.07427838 0 0 Z " fill="#D62F2F" transform="translate(579,100)"/>
<path d="M0 0 C0.99 0.33 1.98 0.66 3 1 C3 1.66 3 2.32 3 3 C5.97 3.495 5.97 3.495 9 4 C8.67 5.32 8.34 6.64 8 8 C7.34 8 6.68 8 6 8 C6 7.34 6 6.68 6 6 C5.34 6 4.68 6 4 6 C4 6.66 4 7.32 4 8 C2.68 8 1.36 8 0 8 C-0.33 6.35 -0.66 4.7 -1 3 C-0.34 3 0.32 3 1 3 C0.67 2.01 0.34 1.02 0 0 Z " fill="#D32020" transform="translate(687,231)"/>
<path d="M0 0 C0.8971875 0.309375 0.8971875 0.309375 1.8125 0.625 C1.23905063 3.49224686 0.9510485 4.4864515 -1.1875 6.625 C-4.3125 6.25 -4.3125 6.25 -7.1875 5.625 C-5.69046729 2.17030914 -4.27938051 -0.73360809 0 0 Z " fill="#D93E3E" transform="translate(608.1875,81.375)"/>
<path d="M0 0 C0.33 0.66 0.66 1.32 1 2 C2.98 2 4.96 2 7 2 C6 5 6 5 4 7 C2.01178687 7.39764263 0.01055661 7.73775349 -2 8 C-2.33 6.68 -2.66 5.36 -3 4 C-2.34 3.67 -1.68 3.34 -1 3 C-1.99 3 -2.98 3 -4 3 C-4 2.34 -4 1.68 -4 1 C-2.68 0.67 -1.36 0.34 0 0 Z " fill="#D9CAB5" transform="translate(639,267)"/>
<path d="M0 0 C0.99 0.33 1.98 0.66 3 1 C2.41196203 4.02419525 1.77321882 7.01758453 1 10 C0.01 10 -0.98 10 -2 10 C-2.99 10.495 -2.99 10.495 -4 11 C-3.979375 10.21625 -3.95875 9.4325 -3.9375 8.625 C-3.81315937 6.01885039 -3.81315937 6.01885039 -5 4 C-4.0409375 3.8453125 -4.0409375 3.8453125 -3.0625 3.6875 C-2.381875 3.460625 -1.70125 3.23375 -1 3 C-0.67 2.01 -0.34 1.02 0 0 Z " fill="#D00E0E" transform="translate(806,137)"/>
<path d="M0 0 C1.81853256 0.92574392 3.62968883 1.86598995 5.4375 2.8125 C6.95150391 3.59560547 6.95150391 3.59560547 8.49609375 4.39453125 C11 6 11 6 12 9 C10.68 9 9.36 9 8 9 C7.67 8.34 7.34 7.68 7 7 C6.01 7.66 5.02 8.32 4 9 C4 7.35 4 5.7 4 4 C2.68 4 1.36 4 0 4 C0 2.68 0 1.36 0 0 Z " fill="#D73232" transform="translate(236,494)"/>
<path d="M0 0 C1.67542976 0.28604898 3.34385343 0.61781233 5 1 C3.02 1.99 3.02 1.99 1 3 C1.66 3 2.32 3 3 3 C3 5.64 3 8.28 3 11 C2.01 10.67 1.02 10.34 0 10 C0 8.68 0 7.36 0 6 C-0.66 6 -1.32 6 -2 6 C-1.125 1.125 -1.125 1.125 0 0 Z " fill="#D52A2A" transform="translate(938,440)"/>
<path d="M0 0 C0.33 0.66 0.66 1.32 1 2 C1.66 2 2.32 2 3 2 C3 1.34 3 0.68 3 0 C3.66 0 4.32 0 5 0 C7.28571429 8.42857143 7.28571429 8.42857143 7 13 C6.01 13.495 6.01 13.495 5 14 C4.34 10.7 3.68 7.4 3 4 C1.68 3.67 0.36 3.34 -1 3 C-0.67 2.01 -0.34 1.02 0 0 Z " fill="#DACBB7" transform="translate(773,501)"/>
<path d="M0 0 C0.66 0 1.32 0 2 0 C2.33 1.65 2.66 3.3 3 5 C3.66 5 4.32 5 5 5 C5 6.32 5 7.64 5 9 C4.01 9.33 3.02 9.66 2 10 C2 9.34 2 8.68 2 8 C0.68 7.34 -0.64 6.68 -2 6 C-1.34 4.02 -0.68 2.04 0 0 Z " fill="#D31E1E" transform="translate(696,238)"/>
<path d="M0 0 C-0.36712972 2.71675995 -0.72744599 4.61063713 -2.3125 6.875 C-4 8 -4 8 -6.1875 7.6875 C-6.785625 7.460625 -7.38375 7.23375 -8 7 C-7.67 5.02 -7.34 3.04 -7 1 C-2.25 0 -2.25 0 0 0 Z " fill="#D73333" transform="translate(760,297)"/>
<path d="M0 0 C2.97 0.495 2.97 0.495 6 1 C7 5.75 7 5.75 7 8 C4.83125748 7.49396008 3.00032373 7.00016187 1 6 C0.375 2.9375 0.375 2.9375 0 0 Z " fill="#D83C3C" transform="translate(634,148)"/>
<path d="M0 0 C3 1 6 2 9 3 C8.34 3.66 7.68 4.32 7 5 C6.01 5 5.02 5 4 5 C4.33 6.98 4.66 8.96 5 11 C4.34 11 3.68 11 3 11 C3 9.68 3 8.36 3 7 C2.01 7 1.02 7 0 7 C0.33 6.01 0.66 5.02 1 4 C0.61067144 1.85744207 0.61067144 1.85744207 0 0 Z " fill="#D73535" transform="translate(691,216)"/>
<path d="M0 0 C3 0 3 0 4.75 1.0625 C6.70767152 4.09689086 5.70550248 6.60076077 5 10 C4.34 9.67 3.68 9.34 3 9 C3 8.01 3 7.02 3 6 C1.68 5.34 0.36 4.68 -1 4 C-0.67 2.68 -0.34 1.36 0 0 Z " fill="#D73535" transform="translate(709,208)"/>
<path d="M0 0 C0.66 0.66 1.32 1.32 2 2 C4.57061311 2.64767793 4.57061311 2.64767793 7 3 C7 2.01 7 1.02 7 0 C7.66 0 8.32 0 9 0 C9 1.32 9 2.64 9 4 C6.02148438 4.29296875 6.02148438 4.29296875 3.04296875 4.5859375 C0.70011858 4.92665391 0.70011858 4.92665391 -2 7 C-2 6.34 -2 5.68 -2 5 C-2.66 4.67 -3.32 4.34 -4 4 C-3.67 3.34 -3.34 2.68 -3 2 C-2.34 2.33 -1.68 2.66 -1 3 C-0.67 2.01 -0.34 1.02 0 0 Z " fill="#D42424" transform="translate(1016,678)"/>
<path d="M0 0 C1.65 1.65 3.3 3.3 5 5 C4.34 6.65 3.68 8.3 3 10 C2.34 10 1.68 10 1 10 C-0.625 7.25 -0.625 7.25 -2 4 C-1.1875 1.625 -1.1875 1.625 0 0 Z " fill="#D63837" transform="translate(589,508)"/>
<path d="M0 0 C-0.875 4.875 -0.875 4.875 -2 6 C-3.66617115 6.04063832 -5.33388095 6.042721 -7 6 C-6.625 3.5625 -6.625 3.5625 -6 1 C-4 0 -4 0 0 0 Z " fill="#D83A3A" transform="translate(609,299)"/>
<path d="M0 0 C0 0.99 0 1.98 0 3 C-2.875 3.625 -2.875 3.625 -6 4 C-6.66 3.34 -7.32 2.68 -8 2 C-8 1.01 -8 0.02 -8 -1 C-4.37673261 -2.2077558 -3.35853631 -1.54311128 0 0 Z " fill="#D93C3C" transform="translate(450,235)"/>
<path d="M0 0 C2 3 2 3 2 5 C-0.64 5.33 -3.28 5.66 -6 6 C-6 4.35 -6 2.7 -6 1 C-4.02 0.67 -2.04 0.34 0 0 Z " fill="#D42222" transform="translate(590,718)"/>
<path d="M0 0 C2.97 0.495 2.97 0.495 6 1 C6 2.32 6 3.64 6 5 C5.360625 5.12375 4.72125 5.2475 4.0625 5.375 C3.0415625 5.684375 3.0415625 5.684375 2 6 C1.67 6.66 1.34 7.32 1 8 C-0.42944945 5.64561267 -1.08661261 4.51967567 -0.625 1.75 C-0.41875 1.1725 -0.2125 0.595 0 0 Z " fill="#D8C9B4" transform="translate(830,656)"/>
<path d="M0 0 C0.99 0 1.98 0 3 0 C3.33 1.98 3.66 3.96 4 6 C0.25 7.125 0.25 7.125 -2 6 C-1.125 1.125 -1.125 1.125 0 0 Z " fill="#D83B3B" transform="translate(791,86)"/>
<path d="M0 0 C0.66 0 1.32 0 2 0 C1.67 2.64 1.34 5.28 1 8 C-1.4375 7.25 -1.4375 7.25 -4 6 C-4.8125 3.875 -4.8125 3.875 -5 2 C-3.33333333 2 -1.66666667 2 0 2 C0 1.34 0 0.68 0 0 Z " fill="#D11918" transform="translate(805,665)"/>
<path d="M0 0 C0.99 0.33 1.98 0.66 3 1 C3.33 2.65 3.66 4.3 4 6 C0 6 0 6 -3 4 C-2.67 3.01 -2.34 2.02 -2 1 C-1.34 0.67 -0.68 0.34 0 0 Z " fill="#DACCB8" transform="translate(855,544)"/>
<path d="M0 0 C0.66 0 1.32 0 2 0 C2.185625 1.5778125 2.185625 1.5778125 2.375 3.1875 C2.91140782 6.45958771 3.63880035 9.00536076 5 12 C4.34 12 3.68 12 3 12 C2.67 11.34 2.34 10.68 2 10 C1.01 9.67 0.02 9.34 -1 9 C-1 7.68 -1 6.36 -1 5 C-0.01 5 0.98 5 2 5 C1.34 3.35 0.68 1.7 0 0 Z " fill="#D52B2B" transform="translate(1020,422)"/>
<path d="M0 0 C1.65 0 3.3 0 5 0 C5 0.66 5 1.32 5 2 C5.99 2.33 6.98 2.66 8 3 C8 4.32 8 5.64 8 7 C7.401875 6.690625 6.80375 6.38125 6.1875 6.0625 C3.91043228 4.89790296 3.91043228 4.89790296 1 4 C0.3125 1.9375 0.3125 1.9375 0 0 Z " fill="#D73535" transform="translate(1009,421)"/>
<path d="M0 0 C1.65 0 3.3 0 5 0 C4.67 2.31 4.34 4.62 4 7 C2.68 6.67 1.36 6.34 0 6 C-0.33 6.66 -0.66 7.32 -1 8 C-0.67 5.36 -0.34 2.72 0 0 Z " fill="#D73535" transform="translate(646,45)"/>
<path d="M0 0 C2.0625 0.4375 2.0625 0.4375 4 1 C4.33 2.32 4.66 3.64 5 5 C3.35 5.33 1.7 5.66 0 6 C-0.38218767 4.34385343 -0.71395102 2.67542976 -1 1 C-0.67 0.67 -0.34 0.34 0 0 Z " fill="#D93F3F" transform="translate(679,350)"/>
<path d="M0 0 C0.99 0.33 1.98 0.66 3 1 C2.67 2.65 2.34 4.3 2 6 C0.35 6 -1.3 6 -3 6 C-2.42655063 3.13275314 -2.1385485 2.1385485 0 0 Z " fill="#D93E3E" transform="translate(954,811)"/>
<path d="M0 0 C0.99 0.33 1.98 0.66 3 1 C2.42655063 3.86724686 2.1385485 4.8614515 0 7 C-0.99 7 -1.98 7 -3 7 C-2.38722388 4.03824877 -1.74627478 2.61941217 0 0 Z " fill="#D83B3B" transform="translate(484,209)"/>
<path d="M0 0 C1.32 0 2.64 0 4 0 C3.814375 0.78375 3.62875 1.5675 3.4375 2.375 C2.74037734 4.97089775 2.74037734 4.97089775 4 7 C1.03 6.505 1.03 6.505 -2 6 C-1.34 4.02 -0.68 2.04 0 0 Z " fill="#D62D2D" transform="translate(997,725)"/>
<path d="M0 0 C1.32 0 2.64 0 4 0 C4.33 1.65 4.66 3.3 5 5 C3.125 5.625 3.125 5.625 1 6 C0.34 5.34 -0.32 4.68 -1 4 C-0.625 1.875 -0.625 1.875 0 0 Z " fill="#D21818" transform="translate(854,586)"/>
<path d="M0 0 C0.66 0.33 1.32 0.66 2 1 C0.8758824 2.29243468 -0.24932592 3.58392075 -1.375 4.875 C-2.00148438 5.59429687 -2.62796875 6.31359375 -3.2734375 7.0546875 C-4.47426834 8.4076598 -5.7208345 9.7208345 -7 11 C-7.4375 8.3125 -7.4375 8.3125 -7 5 C-4.88875077 2.95224699 -2.54140493 1.46519774 0 0 Z " fill="#D9CBB6" transform="translate(784,474)"/>
<path d="M0 0 C-0.625 1.875 -0.625 1.875 -2 4 C-5.125 5.25 -5.125 5.25 -8 6 C-8.66 5.34 -9.32 4.68 -10 4 C-4 0 -4 0 0 0 Z " fill="#DACCB7" transform="translate(524,346)"/>
<path d="M0 0 C-0.33 0.66 -0.66 1.32 -1 2 C-1.99 2 -2.98 2 -4 2 C-4.33 2.66 -4.66 3.32 -5 4 C-8.0625 4.625 -8.0625 4.625 -11 5 C-10.67 3.68 -10.34 2.36 -10 1 C-6.61981469 -0.04005702 -3.5219721 -0.08004482 0 0 Z " fill="#D32020" transform="translate(677,207)"/>
<path d="M0 0 C2.16874252 0.50603992 3.99967627 0.99983813 6 2 C5.67 2.99 5.34 3.98 5 5 C4.34 5 3.68 5 3 5 C3 5.99 3 6.98 3 8 C2.34 8 1.68 8 1 8 C1.33 6.35 1.66 4.7 2 3 C1.34 3 0.68 3 0 3 C0 2.01 0 1.02 0 0 Z " fill="#D83737" transform="translate(882,747)"/>
<path d="M0 0 C0.99 0 1.98 0 3 0 C3 1.98 3 3.96 3 6 C1.35 5.67 -0.3 5.34 -2 5 C-1.125 1.125 -1.125 1.125 0 0 Z " fill="#D83737" transform="translate(375,710)"/>
<path d="M0 0 C0.99 0.33 1.98 0.66 3 1 C4.125 5.75 4.125 5.75 3 8 C2.01 7.67 1.02 7.34 0 7 C-1.125 2.25 -1.125 2.25 0 0 Z " fill="#DACCB7" transform="translate(817,387)"/>
<path d="M0 0 C1.32 0 2.64 0 4 0 C4 0.66 4 1.32 4 2 C4.99 2.33 5.98 2.66 7 3 C5.625 4.5 5.625 4.5 4 6 C3.34 6 2.68 6 2 6 C0 3 0 3 0 0 Z " fill="#D73535" transform="translate(659,310)"/>
<path d="M0 0 C0.33 1.65 0.66 3.3 1 5 C0.34 5 -0.32 5 -1 5 C-1 4.34 -1 3.68 -1 3 C-2.97536745 3.34786708 -2.97536745 3.34786708 -5 4 C-5.33 4.66 -5.66 5.32 -6 6 C-6.66 6 -7.32 6 -8 6 C-6.24081631 1.94034532 -4.71412298 0 0 0 Z " fill="#D62C2C" transform="translate(755,240)"/>
<path d="M0 0 C0.99 0 1.98 0 3 0 C6 3.33333333 6 3.33333333 6 6 C4.02 6.33 2.04 6.66 0 7 C0.66 6.67 1.32 6.34 2 6 C2 5.01 2 4.02 2 3 C1.34 3 0.68 3 0 3 C0 2.01 0 1.02 0 0 Z " fill="#D83B3B" transform="translate(612,223)"/>
<path d="M0 0 C0.66 0 1.32 0 2 0 C2.66 1.65 3.32 3.3 4 5 C2.35 5.66 0.7 6.32 -1 7 C-1.33 5.35 -1.66 3.7 -2 2 C-1.34 2 -0.68 2 0 2 C0 1.34 0 0.68 0 0 Z " fill="#D9CAB5" transform="translate(789,638)"/>
<path d="M0 0 C0.99 0 1.98 0 3 0 C3.33 1.98 3.66 3.96 4 6 C2.68 6.33 1.36 6.66 0 7 C-0.38133299 5.0085944 -0.71325582 3.00720923 -1 1 C-0.67 0.67 -0.34 0.34 0 0 Z " fill="#D73333" transform="translate(691,383)"/>
<path d="M0 0 C0.33 0 0.66 0 1 0 C0.979375 0.763125 0.95875 1.52625 0.9375 2.3125 C0.87057159 5.10185786 0.87057159 5.10185786 2 8 C1.236875 8.45375 0.47375 8.9075 -0.3125 9.375 C-2.23632814 10.53824492 -4.12941224 11.7529415 -6 13 C-4.91367588 10.74378837 -3.76654035 8.62646456 -2.4375 6.5 C-1.14826053 4.2578444 -0.46652072 2.51921187 0 0 Z " fill="#CF1F1C" transform="translate(531,302)"/>
<path d="M0 0 C2 1 4 2 6 3 C5.67 3.99 5.34 4.98 5 6 C3.35 5.67 1.7 5.34 0 5 C-0.33 4.01 -0.66 3.02 -1 2 C-0.67 1.34 -0.34 0.68 0 0 Z " fill="#D73535" transform="translate(441,267)"/>
<path d="M0 0 C0.99 1.32 1.98 2.64 3 4 C2.01 5.98 1.02 7.96 0 10 C-0.99 9.34 -1.98 8.68 -3 8 C-3 7.34 -3 6.68 -3 6 C-2.01 6 -1.02 6 0 6 C0 4.02 0 2.04 0 0 Z " fill="#D83636" transform="translate(1052,680)"/>
<path d="M0 0 C1.65 0 3.3 0 5 0 C5 0.66 5 1.32 5 2 C4.34 2 3.68 2 3 2 C3 2.99 3 3.98 3 5 C1.35 5 -0.3 5 -2 5 C-1.34 3.35 -0.68 1.7 0 0 Z " fill="#D52C2C" transform="translate(1016,671)"/>
<path d="M0 0 C2.31 0.33 4.62 0.66 7 1 C6.34 2.32 5.68 3.64 5 5 C4.01 5 3.02 5 2 5 C1.34 3.35 0.68 1.7 0 0 Z " fill="#D9CBB7" transform="translate(778,518)"/>
<path d="M0 0 C-0.75 1.9375 -0.75 1.9375 -2 4 C-4.125 4.75 -4.125 4.75 -6 5 C-6 3.35 -6 1.7 -6 0 C-3.50907189 -1.24546405 -2.58919267 -0.7767578 0 0 Z " fill="#DACBB7" transform="translate(860,505)"/>
<path d="M0 0 C0.625 1.8125 0.625 1.8125 1 4 C0.01 5.485 0.01 5.485 -1 7 C-1.99 6.34 -2.98 5.68 -4 5 C-3.6875 3.0625 -3.6875 3.0625 -3 1 C-2.01 0.67 -1.02 0.34 0 0 Z " fill="#D53735" transform="translate(745,483)"/>
<path d="M0 0 C-0.33 0.99 -0.66 1.98 -1 3 C-1.99 3 -2.98 3 -4 3 C-4 3.99 -4 4.98 -4 6 C-4.66 6 -5.32 6 -6 6 C-6 5.01 -6 4.02 -6 3 C-6.66 3 -7.32 3 -8 3 C-8 2.34 -8 1.68 -8 1 C-2.25 0 -2.25 0 0 0 Z " fill="#D52A2A" transform="translate(1035,433)"/>
<path d="M0 0 C1.98 0.495 1.98 0.495 4 1 C4 1.66 4 2.32 4 3 C4.99 2.67 5.98 2.34 7 2 C7 2.66 7 3.32 7 4 C3.37673261 5.2077558 2.35853631 4.54311128 -1 3 C-0.67 2.01 -0.34 1.02 0 0 Z " fill="#D63030" transform="translate(928,680)"/>
<path d="M0 0 C0.66 0 1.32 0 2 0 C1.814375 0.598125 1.62875 1.19625 1.4375 1.8125 C0.77906313 4.16408762 0.77906313 4.16408762 2 7 C0.35 7.33 -1.3 7.66 -3 8 C-1.125 2.25 -1.125 2.25 0 0 Z " fill="#D63030" transform="translate(1010,659)"/>
<path d="M0 0 C0.99 0.33 1.98 0.66 3 1 C3.1875 3.375 3.1875 3.375 3 6 C2.01 6.66 1.02 7.32 0 8 C-0.66 7.34 -1.32 6.68 -2 6 C-2 5.01 -2 4.02 -2 3 C-1.34 3 -0.68 3 0 3 C0 2.01 0 1.02 0 0 Z " fill="#D52B2B" transform="translate(959,518)"/>
<path d="M0 0 C3 1 3 1 4.1875 3.0625 C4.455625 3.701875 4.72375 4.34125 5 5 C2 6 2 6 -1 6 C-1.042721 4.33388095 -1.04063832 2.66617115 -1 1 C-0.67 0.67 -0.34 0.34 0 0 Z " fill="#D73333" transform="translate(204,471)"/>
<path d="M0 0 C1.65 0 3.3 0 5 0 C5 0.99 5 1.98 5 3 C4.34 3 3.68 3 3 3 C3.33 4.32 3.66 5.64 4 7 C3.01 7 2.02 7 1 7 C0.67 4.69 0.34 2.38 0 0 Z " fill="#D73434" transform="translate(712,197)"/>
<path d="M0 0 C0.99 0 1.98 0 3 0 C3 1.65 3 3.3 3 5 C1.68 5 0.36 5 -1 5 C-1.33 4.01 -1.66 3.02 -2 2 C-1.34 2 -0.68 2 0 2 C0 1.34 0 0.68 0 0 Z " fill="#D52727" transform="translate(895,744)"/>
<path d="M0 0 C6.4 -0.36923077 6.4 -0.36923077 9.4375 1.5 C9.953125 1.995 10.46875 2.49 11 3 C8.69 2.67 6.38 2.34 4 2 C3.67 2.66 3.34 3.32 3 4 C2.67 3.34 2.34 2.68 2 2 C1.34 2 0.68 2 0 2 C0 1.34 0 0.68 0 0 Z " fill="#D63030" transform="translate(1076,571)"/>
<path d="M0 0 C0 0.66 0 1.32 0 2 C-0.66 2 -1.32 2 -2 2 C-2 2.66 -2 3.32 -2 4 C-2.66 4 -3.32 4 -4 4 C-4 3.34 -4 2.68 -4 2 C-5.32 2 -6.64 2 -8 2 C-8 1.34 -8 0.68 -8 0 C-4.94736336 -0.98120464 -3.05263664 -0.98120464 0 0 Z " fill="#D11717" transform="translate(959,569)"/>
<path d="M0 0 C0 1.98 0 3.96 0 6 C-0.99 5.67 -1.98 5.34 -3 5 C-3 4.34 -3 3.68 -3 3 C-3.66 3 -4.32 3 -5 3 C-5 2.34 -5 1.68 -5 1 C-3 0 -3 0 0 0 Z " fill="#D73131" transform="translate(272,512)"/>
<path d="M0 0 C1.32 0.66 2.64 1.32 4 2 C3.67 2.99 3.34 3.98 3 5 C1.35 4.67 -0.3 4.34 -2 4 C-1.34 2.68 -0.68 1.36 0 0 Z " fill="#DBCCB9" transform="translate(461,339)"/>
<path d="M0 0 C1.32 0 2.64 0 4 0 C4 1.65 4 3.3 4 5 C2.68 4.67 1.36 4.34 0 4 C0 2.68 0 1.36 0 0 Z " fill="#D83A3A" transform="translate(703,289)"/>
<path d="M0 0 C0.66 0 1.32 0 2 0 C2.93423645 3.01031744 3.04449911 3.86650268 2 7 C0.68 7 -0.64 7 -2 7 C-1.42415568 4.61435923 -0.77772405 2.33317216 0 0 Z " fill="#D31C1C" transform="translate(582,266)"/>
<path d="M0 0 C0.33 0.99 0.66 1.98 1 3 C-1.3125 6.1875 -1.3125 6.1875 -4 9 C-4.66 9 -5.32 9 -6 9 C-4.47291037 5.56404834 -2.40072955 2.88087546 0 0 Z " fill="#D83A3A" transform="translate(785,159)"/>
<path d="M0 0 C1.32 0.66 2.64 1.32 4 2 C4 2.99 4 3.98 4 5 C2.35 4.67 0.7 4.34 -1 4 C-0.67 2.68 -0.34 1.36 0 0 Z " fill="#D83636" transform="translate(1088,504)"/>
<path d="M0 0 C1.32 0.33 2.64 0.66 4 1 C4 1.66 4 2.32 4 3 C-1.75 4.125 -1.75 4.125 -4 3 C-4 2.34 -4 1.68 -4 1 C-2.68 1.33 -1.36 1.66 0 2 C0 1.34 0 0.68 0 0 Z " fill="#D52929" transform="translate(218,463)"/>
<path d="M0 0 C1.98 0.495 1.98 0.495 4 1 C3.34 2.98 2.68 4.96 2 7 C1.01 7 0.02 7 -1 7 C-1 6.34 -1 5.68 -1 5 C-0.34 5 0.32 5 1 5 C0.67 3.35 0.34 1.7 0 0 Z " fill="#D83939" transform="translate(738,278)"/>
<path d="M0 0 C0.99 0 1.98 0 3 0 C4.09658936 3.28976808 3.79953138 4.71303767 3 8 C0 6 0 6 -1 3 C-0.67 2.01 -0.34 1.02 0 0 Z " fill="#D11515" transform="translate(713,204)"/>
<path d="M0 0 C0 0.66 0 1.32 0 2 C-0.66 2 -1.32 2 -2 2 C-2.33 2.99 -2.66 3.98 -3 5 C-3.33 4.01 -3.66 3.02 -4 2 C-4.66 2 -5.32 2 -6 2 C-6 1.34 -6 0.68 -6 0 C-3.50907189 -1.24546405 -2.58919267 -0.7767578 0 0 Z " fill="#D31D1D" transform="translate(888,757)"/>
<path d="M0 0 C0.99 0.33 1.98 0.66 3 1 C2.34 2.65 1.68 4.3 1 6 C0.34 6 -0.32 6 -1 6 C-1 5.34 -1 4.68 -1 4 C-1.66 3.67 -2.32 3.34 -3 3 C-2.01 2.01 -1.02 1.02 0 0 Z " fill="#D62D2D" transform="translate(903,745)"/>
<path d="M0 0 C2.475 0.99 2.475 0.99 5 2 C4.67 3.65 4.34 5.3 4 7 C1 5 1 5 0.3125 2.375 C0.209375 1.59125 0.10625 0.8075 0 0 Z " fill="#D62D2D" transform="translate(700,643)"/>
<path d="M0 0 C2.0625 0.4375 2.0625 0.4375 4 1 C4 1.99 4 2.98 4 4 C2.68 4.33 1.36 4.66 0 5 C-0.5625 3.0625 -0.5625 3.0625 -1 1 C-0.67 0.67 -0.34 0.34 0 0 Z " fill="#D83939" transform="translate(658,606)"/>
<path d="M0 0 C0.99 0 1.98 0 3 0 C3 1.65 3 3.3 3 5 C1.68 5 0.36 5 -1 5 C-0.67 3.35 -0.34 1.7 0 0 Z " fill="#D83A3A" transform="translate(284,517)"/>
<path d="M0 0 C0.99 0.33 1.98 0.66 3 1 C3.94921875 3.06640625 3.94921875 3.06640625 4.6875 5.5625 C4.93886719 6.38878906 5.19023438 7.21507812 5.44921875 8.06640625 C5.63097656 8.70449219 5.81273437 9.34257812 6 10 C4.5 8.6875 4.5 8.6875 3 7 C3 6.01 3 5.02 3 4 C2.34 4 1.68 4 1 4 C0.67 2.68 0.34 1.36 0 0 Z " fill="#D52B2B" transform="translate(851,417)"/>
<path d="M0 0 C0 2.31 0 4.62 0 7 C-0.99 7 -1.98 7 -3 7 C-3 5.02 -3 3.04 -3 1 C-1 0 -1 0 0 0 Z " fill="#DACCB7" transform="translate(656,260)"/>
<path d="M0 0 C0.66 0 1.32 0 2 0 C1.67 1.98 1.34 3.96 1 6 C0.34 5.67 -0.32 5.34 -1 5 C-1.66 5.66 -2.32 6.32 -3 7 C-3.33 5.68 -3.66 4.36 -4 3 C-3.01 2.67 -2.02 2.34 -1 2 C-0.67 1.34 -0.34 0.68 0 0 Z " fill="#CE0505" transform="translate(711,204)"/>
<path d="M0 0 C1.04449911 3.13349732 0.93423645 3.98968256 0 7 C-2.475 6.01 -2.475 6.01 -5 5 C-3.35 3.35 -1.7 1.7 0 0 Z " fill="#D31F1F" transform="translate(805,135)"/>
<path d="M0 0 C2.64 0.99 5.28 1.98 8 3 C7.67 3.99 7.34 4.98 7 6 C4.69 5.01 2.38 4.02 0 3 C0 2.01 0 1.02 0 0 Z " fill="#D32121" transform="translate(713,872)"/>
<path d="M0 0 C1.32 0.99 2.64 1.98 4 3 C3.67 3.99 3.34 4.98 3 6 C1.35 5.67 -0.3 5.34 -2 5 C-1.34 3.35 -0.68 1.7 0 0 Z " fill="#D32020" transform="translate(734,637)"/>
<path d="M0 0 C2 0.25 2 0.25 4 1 C4.33 1.99 4.66 2.98 5 4 C3.35 4 1.7 4 0 4 C-0.33 3.01 -0.66 2.02 -1 1 C-0.67 0.67 -0.34 0.34 0 0 Z " fill="#D83838" transform="translate(711,552)"/>
<path d="M0 0 C-1.20381448 2.49361571 -2.45428722 4.68143083 -4 7 C-4.66 6.67 -5.32 6.34 -6 6 C-5.34 5.01 -4.68 4.02 -4 3 C-4.66 2.67 -5.32 2.34 -6 2 C-2.25 0 -2.25 0 0 0 Z " fill="#D42222" transform="translate(280,497)"/>
<path d="M0 0 C2.125 0.375 2.125 0.375 4 1 C3.67 2.32 3.34 3.64 3 5 C2.34 5 1.68 5 1 5 C1 4.34 1 3.68 1 3 C0.01 2.67 -0.98 2.34 -2 2 C-1.34 1.34 -0.68 0.68 0 0 Z " fill="#D42525" transform="translate(227,489)"/>
<path d="M0 0 C0 1.98 0 3.96 0 6 C-1.65 5.67 -3.3 5.34 -5 5 C-5 3 -5 3 -3.625 1.375 C-2 0 -2 0 0 0 Z " fill="#D52B2B" transform="translate(982,463)"/>
<path d="M0 0 C0.99 0 1.98 0 3 0 C3.33 1.98 3.66 3.96 4 6 C3.34 6 2.68 6 2 6 C2 5.34 2 4.68 2 4 C1.01 4 0.02 4 -1 4 C-0.67 2.68 -0.34 1.36 0 0 Z " fill="#D73131" transform="translate(504,216)"/>
<path d="M0 0 C1 3 1 3 1 6 C1.66 6.33 2.32 6.66 3 7 C3 7.66 3 8.32 3 9 C1.68 8.67 0.36 8.34 -1 8 C-1.625 5.125 -1.625 5.125 -2 2 C-1.34 1.34 -0.68 0.68 0 0 Z " fill="#D73131" transform="translate(768,151)"/>
<path d="M0 0 C1.32 0.33 2.64 0.66 4 1 C3.67 1.66 3.34 2.32 3 3 C2.34 2.67 1.68 2.34 1 2 C1 2.99 1 3.98 1 5 C0.01 5 -0.98 5 -2 5 C-1.34 3.35 -0.68 1.7 0 0 Z " fill="#D31F1F" transform="translate(679,708)"/>
<path d="M0 0 C1.32 0 2.64 0 4 0 C4.33 1.32 4.66 2.64 5 4 C3.35 4.33 1.7 4.66 0 5 C0 3.33333333 0 1.66666667 0 0 Z " fill="#D11313" transform="translate(1009,670)"/>
<path d="M0 0 C2.31 0.66 4.62 1.32 7 2 C7 2.66 7 3.32 7 4 C5.35 4 3.7 4 2 4 C2 3.34 2 2.68 2 2 C1.34 2 0.68 2 0 2 C0 1.34 0 0.68 0 0 Z " fill="#D32121" transform="translate(884,613)"/>
<path d="M0 0 C1.65 0.99 3.3 1.98 5 3 C1.25 5 1.25 5 -1 5 C-0.67 3.35 -0.34 1.7 0 0 Z " fill="#D52929" transform="translate(1088,572)"/>
<path d="M0 0 C2 3.75 2 3.75 2 6 C1.34 6 0.68 6 0 6 C0 6.66 0 7.32 0 8 C-0.66 8 -1.32 8 -2 8 C-1.125 2.25 -1.125 2.25 0 0 Z " fill="#D01514" transform="translate(751,425)"/>
<path d="M0 0 C0.66 0 1.32 0 2 0 C3.35439668 2.70879335 3.06501451 5.00933268 3 8 C2.01 7.34 1.02 6.68 0 6 C-0.1875 2.875 -0.1875 2.875 0 0 Z " fill="#D42626" transform="translate(926,412)"/>
<path d="M0 0 C1.32 0.66 2.64 1.32 4 2 C4 2.66 4 3.32 4 4 C2.02 4 0.04 4 -2 4 C-1.34 2.68 -0.68 1.36 0 0 Z " fill="#DBCDB9" transform="translate(409,370)"/>
<path d="M0 0 C0.66 0 1.32 0 2 0 C2.66 1.65 3.32 3.3 4 5 C3.01 5.33 2.02 5.66 1 6 C0.34 5.67 -0.32 5.34 -1 5 C-0.67 3.35 -0.34 1.7 0 0 Z " fill="#D62E2E" transform="translate(400,341)"/>
<path d="M0 0 C0.99 0.33 1.98 0.66 3 1 C2.67 1.99 2.34 2.98 2 4 C-0.0625 4.6875 -0.0625 4.6875 -2 5 C-1.125 1.125 -1.125 1.125 0 0 Z " fill="#D73636" transform="translate(297,257)"/>
<path d="M0 0 C0.66 0 1.32 0 2 0 C2 0.66 2 1.32 2 2 C1.34 2 0.68 2 0 2 C0 1.34 0 0.68 0 0 Z " fill="#FFFFFF" transform="translate(255,906)"/>
<path d="" fill="#FFFFFF" transform="translate(0,0)"/>
</svg>
